<?xml version="1.0" encoding="UTF-8" standalone="no"?>
<svg
   version="1.1"
   width="600px"
   height="600px"
   viewBox="0 0 200 200"
   style="overflow:hidden!important;"
   id="svg1"
   sodipodi:docname="avatar.svg"
   inkscape:version="1.3.2 (091e20e, 2023-11-25, custom)"
   xmlns:inkscape="http://www.inkscape.org/namespaces/inkscape"
   xmlns:sodipodi="http://sodipodi.sourceforge.net/DTD/sodipodi-0.dtd"
   xmlns="http://www.w3.org/2000/svg"
   xmlns:svg="http://www.w3.org/2000/svg">
  <sodipodi:namedview
     id="namedview1"
     pagecolor="#ffffff"
     bordercolor="#666666"
     borderopacity="1.0"
     inkscape:showpageshadow="2"
     inkscape:pageopacity="0.0"
     inkscape:pagecheckerboard="0"
     inkscape:deskcolor="#d1d1d1"
     inkscape:zoom="1.295"
     inkscape:cx="300"
     inkscape:cy="547.10425"
     inkscape:window-width="1920"
     inkscape:window-height="991"
     inkscape:window-x="2391"
     inkscape:window-y="-9"
     inkscape:window-maximized="1"
     inkscape:current-layer="svg1" />
  <defs
     id="SvgjsDefs1007">
    <radialGradient
       id="SvgjsRadialGradient2907"
       cx="100"
       cy="114"
       r="41"
       gradientUnits="userSpaceOnUse"
       class="svga-on-canvas-facehighlight-gradient-single-0"
       gradientTransform="matrix(1.0559676,0,0,1.0559676,-5.5967843,-6.4603436)">
      <stop
         id="SvgjsStop2908"
         stop-opacity="0.5"
         stop-color="#ffe4d6"
         offset="0" />
      <stop
         id="SvgjsStop2909"
         stop-opacity="0"
         stop-color="#f0c7b1"
         offset="0.9" />
    </radialGradient>
    <radialGradient
       id="SvgjsRadialGradient2911"
       cx="100"
       cy="54"
       r="37"
       gradientUnits="userSpaceOnUse"
       class="svga-on-canvas-facehighlight-gradient-single-1"
       gradientTransform="matrix(1.0559676,0,0,1.0559676,-5.5967843,-6.4603436)">
      <stop
         id="SvgjsStop2912"
         stop-opacity="0.5"
         stop-color="#ffe4d6"
         offset="0" />
      <stop
         id="SvgjsStop2913"
         stop-opacity="0"
         stop-color="#f0c7b1"
         offset="0.9" />
    </radialGradient>
    <linearGradient
       id="SvgjsLinearGradient3036"
       x1="100"
       y1="142"
       x2="100"
       y2="139"
       gradientUnits="userSpaceOnUse"
       class="svga-on-canvas-mouth-gradient-single-0"
       gradientTransform="matrix(1.0559676,0,0,1.0559676,-5.5967843,-6.4603436)">
      <stop
         id="SvgjsStop3037"
         stop-opacity="1"
         stop-color="#e8b9a0"
         offset="0.1" />
      <stop
         id="SvgjsStop3038"
         stop-opacity="1"
         stop-color="#e1ac8f"
         offset="1" />
    </linearGradient>
    <linearGradient
       id="SvgjsLinearGradient3557"
       x1="100"
       y1="171"
       x2="100"
       y2="131"
       gradientUnits="userSpaceOnUse"
       class="svga-on-canvas-chinshadow-gradient-single-0"
       gradientTransform="matrix(1.0559676,0,0,1.0559676,-5.5967843,-6.4603436)">
      <stop
         id="SvgjsStop3558"
         stop-opacity="0.8"
         stop-color="#e1ac8f"
         offset="0" />
      <stop
         id="SvgjsStop3559"
         stop-opacity="1"
         stop-color="#c27b55"
         offset="0.7" />
    </linearGradient>
    <radialGradient
       id="SvgjsRadialGradient3566"
       cx="126.287"
       cy="86.14"
       r="10.479"
       gradientTransform="matrix(-1.0559676,0,0,1.0559676,205.59673,-6.4603436)"
       gradientUnits="userSpaceOnUse"
       class="svga-on-canvas-eyesback-gradient-left-0">
      <stop
         id="SvgjsStop3567"
         stop-opacity="1"
         stop-color="#ffffff"
         offset="0" />
      <stop
         id="SvgjsStop3568"
         stop-opacity="1"
         stop-color="#fdfefe"
         offset="0.544" />
      <stop
         id="SvgjsStop3569"
         stop-opacity="1"
         stop-color="#f6f8f9"
         offset="0.74" />
      <stop
         id="SvgjsStop3570"
         stop-opacity="1"
         stop-color="#eaeff2"
         offset="0.879" />
      <stop
         id="SvgjsStop3571"
         stop-opacity="1"
         stop-color="#d9e3e8"
         offset="0.992" />
      <stop
         id="SvgjsStop3572"
         stop-opacity="1"
         stop-color="#d8e2e7"
         offset="1" />
    </radialGradient>
    <radialGradient
       id="SvgjsRadialGradient3574"
       cx="125.888"
       cy="86.14"
       r="10.479"
       gradientUnits="userSpaceOnUse"
       class="svga-on-canvas-eyesback-gradient-right-0"
       gradientTransform="matrix(1.0559676,0,0,1.0559676,-5.5967843,-6.4603436)">
      <stop
         id="SvgjsStop3575"
         stop-opacity="1"
         stop-color="#ffffff"
         offset="0" />
      <stop
         id="SvgjsStop3576"
         stop-opacity="1"
         stop-color="#fdfefe"
         offset="0.544" />
      <stop
         id="SvgjsStop3577"
         stop-opacity="1"
         stop-color="#f6f8f9"
         offset="0.74" />
      <stop
         id="SvgjsStop3578"
         stop-opacity="1"
         stop-color="#eaeff2"
         offset="0.879" />
      <stop
         id="SvgjsStop3579"
         stop-opacity="1"
         stop-color="#d9e3e8"
         offset="0.992" />
      <stop
         id="SvgjsStop3580"
         stop-opacity="1"
         stop-color="#d8e2e7"
         offset="1" />
    </radialGradient>
    <radialGradient
       id="SvgjsRadialGradient3582"
       cx="126.287"
       cy="86.14"
       r="10.479"
       gradientTransform="matrix(-1 0 0 1 200 0)"
       gradientUnits="userSpaceOnUse"
       class="svga-on-canvas-eyesfront-gradient-left-0">
      <stop
         id="SvgjsStop3583"
         stop-opacity="1"
         stop-color="#ffffff"
         offset="0" />
      <stop
         id="SvgjsStop3584"
         stop-opacity="1"
         stop-color="#fdfefe"
         offset="0.544" />
      <stop
         id="SvgjsStop3585"
         stop-opacity="1"
         stop-color="#f6f8f9"
         offset="0.74" />
      <stop
         id="SvgjsStop3586"
         stop-opacity="1"
         stop-color="#eaeff2"
         offset="0.879" />
      <stop
         id="SvgjsStop3587"
         stop-opacity="1"
         stop-color="#d9e3e8"
         offset="0.992" />
      <stop
         id="SvgjsStop3588"
         stop-opacity="1"
         stop-color="#d8e2e7"
         offset="1" />
    </radialGradient>
    <radialGradient
       id="SvgjsRadialGradient3592"
       cx="123.715"
       cy="85.489"
       fx="135.434"
       fy="85.522"
       r="16.667"
       gradientTransform="matrix(1.0557564,0.02196413,0.01752906,-0.84456286,-57.155457,153.29773)"
       gradientUnits="userSpaceOnUse"
       class="svga-on-canvas-eyesfront-gradient-left-3">
      <stop
         id="SvgjsStop3593"
         stop-opacity="1"
         stop-color="#e1ac8f"
         offset="0" />
      <stop
         id="SvgjsStop3594"
         stop-opacity="0.3"
         stop-color="#e1ac8f"
         offset="0.7" />
      <stop
         id="SvgjsStop3595"
         stop-opacity="0"
         stop-color="#f0c7b1"
         offset="1" />
    </radialGradient>
    <radialGradient
       id="SvgjsRadialGradient3597"
       cx="122.897"
       cy="100.745"
       r="25.967"
       gradientTransform="matrix(-0.96462637,-0.42946201,-0.2963045,0.66557636,224.23329,85.648645)"
       gradientUnits="userSpaceOnUse"
       class="svga-on-canvas-eyesfront-gradient-left-4">
      <stop
         id="SvgjsStop3598"
         stop-opacity="0"
         stop-color="#000000"
         offset="0.95" />
      <stop
         id="SvgjsStop3599"
         stop-opacity="0.2"
         stop-color="#000000"
         offset="1" />
    </radialGradient>
    <radialGradient
       id="SvgjsRadialGradient3603"
       cx="125.888"
       cy="86.14"
       r="10.479"
       gradientUnits="userSpaceOnUse"
       class="svga-on-canvas-eyesfront-gradient-right-0">
      <stop
         id="SvgjsStop3604"
         stop-opacity="1"
         stop-color="#ffffff"
         offset="0" />
      <stop
         id="SvgjsStop3605"
         stop-opacity="1"
         stop-color="#fdfefe"
         offset="0.544" />
      <stop
         id="SvgjsStop3606"
         stop-opacity="1"
         stop-color="#f6f8f9"
         offset="0.74" />
      <stop
         id="SvgjsStop3607"
         stop-opacity="1"
         stop-color="#eaeff2"
         offset="0.879" />
      <stop
         id="SvgjsStop3608"
         stop-opacity="1"
         stop-color="#d9e3e8"
         offset="0.992" />
      <stop
         id="SvgjsStop3609"
         stop-opacity="1"
         stop-color="#d8e2e7"
         offset="1" />
    </radialGradient>
    <radialGradient
       id="SvgjsRadialGradient3613"
       cx="123.315"
       cy="85.489"
       fx="135.034"
       fy="85.522"
       r="16.667"
       gradientTransform="matrix(-1.0557564,0.02196413,-0.01752906,-0.84456286,256.312,153.30649)"
       gradientUnits="userSpaceOnUse"
       class="svga-on-canvas-eyesfront-gradient-right-3">
      <stop
         id="SvgjsStop3614"
         stop-opacity="1"
         stop-color="#e1ac8f"
         offset="0" />
      <stop
         id="SvgjsStop3615"
         stop-opacity="0.3"
         stop-color="#e1ac8f"
         offset="0.7" />
      <stop
         id="SvgjsStop3616"
         stop-opacity="0"
         stop-color="#f0c7b1"
         offset="1" />
    </radialGradient>
    <radialGradient
       id="SvgjsRadialGradient3618"
       cx="122.497"
       cy="100.745"
       r="25.967"
       gradientTransform="matrix(0.96462637,-0.42946201,0.2963045,0.66557636,-24.269881,85.477156)"
       gradientUnits="userSpaceOnUse"
       class="svga-on-canvas-eyesfront-gradient-right-4">
      <stop
         id="SvgjsStop3619"
         stop-opacity="0"
         stop-color="#000000"
         offset="0.95" />
      <stop
         id="SvgjsStop3620"
         stop-opacity="0.2"
         stop-color="#000000"
         offset="1" />
    </radialGradient>
    <radialGradient
       id="SvgjsRadialGradient3627"
       cx="-568.659"
       cy="-521.042"
       r="59.751"
       gradientTransform="matrix(0.10137289,-0.026188,0.02587121,0.10147848,143.61978,120.27245)"
       gradientUnits="userSpaceOnUse"
       class="svga-on-canvas-eyesiris-gradient-left-1">
      <stop
         id="SvgjsStop3628"
         stop-opacity="1"
         stop-color="#ffffff"
         offset="0" />
      <stop
         id="SvgjsStop3629"
         stop-opacity="0"
         stop-color="#ffffff"
         offset="1" />
    </radialGradient>
    <radialGradient
       id="SvgjsRadialGradient3631"
       cx="-582.838"
       cy="-519.099"
       r="59.745"
       gradientTransform="matrix(0.10464639,9.3519856e-4,-0.00116156,0.10464639,132.8827,137.16392)"
       gradientUnits="userSpaceOnUse"
       class="svga-on-canvas-eyesiris-gradient-left-2">
      <stop
         id="SvgjsStop3632"
         stop-opacity="1"
         stop-color="#ffffff"
         offset="0" />
      <stop
         id="SvgjsStop3633"
         stop-opacity="0"
         stop-color="#ffffff"
         offset="1" />
    </radialGradient>
    <linearGradient
       id="SvgjsLinearGradient3637"
       x1="122.67"
       y1="88.268"
       x2="123.606"
       y2="87.152"
       gradientTransform="matrix(1.0559676,0,0,1.0559676,-60.479114,-6.4323598)"
       gradientUnits="userSpaceOnUse"
       class="svga-on-canvas-eyesiris-gradient-left-5">
      <stop
         id="SvgjsStop3638"
         stop-opacity="1"
         stop-color="#ffffff"
         offset="0" />
      <stop
         id="SvgjsStop3639"
         stop-opacity="0"
         stop-color="#ffffff"
         offset="1" />
    </linearGradient>
    <linearGradient
       id="SvgjsLinearGradient3641"
       x1="127.212"
       y1="82.296"
       x2="126.463"
       y2="83.189"
       gradientTransform="matrix(1.0559676,0,0,1.0559676,-60.479114,-6.4323598)"
       gradientUnits="userSpaceOnUse"
       class="svga-on-canvas-eyesiris-gradient-left-6">
      <stop
         id="SvgjsStop3642"
         stop-opacity="1"
         stop-color="#ffffff"
         offset="0" />
      <stop
         id="SvgjsStop3643"
         stop-opacity="0"
         stop-color="#ffffff"
         offset="1" />
    </linearGradient>
    <linearGradient
       id="SvgjsLinearGradient3645"
       x1="129.636"
       y1="79.822"
       x2="127.91"
       y2="81.879"
       gradientTransform="matrix(1.0559676,0,0,1.0559676,-60.479114,-6.4323598)"
       gradientUnits="userSpaceOnUse"
       class="svga-on-canvas-eyesiris-gradient-left-7">
      <stop
         id="SvgjsStop3646"
         stop-opacity="1"
         stop-color="#ffffff"
         offset="0" />
      <stop
         id="SvgjsStop3647"
         stop-opacity="0"
         stop-color="#ffffff"
         offset="1" />
    </linearGradient>
    <radialGradient
       id="SvgjsRadialGradient3650"
       cx="-568.654"
       cy="-521.042"
       r="59.752"
       gradientTransform="matrix(0.10137289,-0.026188,0.02587121,0.10147848,198.47306,120.27255)"
       gradientUnits="userSpaceOnUse"
       class="svga-on-canvas-eyesiris-gradient-right-1">
      <stop
         id="SvgjsStop3651"
         stop-opacity="1"
         stop-color="#ffffff"
         offset="0" />
      <stop
         id="SvgjsStop3652"
         stop-opacity="0"
         stop-color="#ffffff"
         offset="1" />
    </radialGradient>
    <radialGradient
       id="SvgjsRadialGradient3654"
       cx="-582.833"
       cy="-519.102"
       r="59.747"
       gradientTransform="matrix(0.10464639,9.3519856e-4,-0.00116156,0.10464639,187.7362,137.16402)"
       gradientUnits="userSpaceOnUse"
       class="svga-on-canvas-eyesiris-gradient-right-2">
      <stop
         id="SvgjsStop3655"
         stop-opacity="1"
         stop-color="#ffffff"
         offset="0" />
      <stop
         id="SvgjsStop3656"
         stop-opacity="0"
         stop-color="#ffffff"
         offset="1" />
    </radialGradient>
    <linearGradient
       id="SvgjsLinearGradient3660"
       x1="122.67"
       y1="88.268"
       x2="123.606"
       y2="87.152"
       gradientUnits="userSpaceOnUse"
       class="svga-on-canvas-eyesiris-gradient-right-5"
       gradientTransform="matrix(1.0559676,0,0,1.0559676,-5.6247681,-6.4323598)">
      <stop
         id="SvgjsStop3661"
         stop-opacity="1"
         stop-color="#ffffff"
         offset="0" />
      <stop
         id="SvgjsStop3662"
         stop-opacity="0"
         stop-color="#ffffff"
         offset="1" />
    </linearGradient>
    <linearGradient
       id="SvgjsLinearGradient3664"
       x1="127.212"
       y1="82.296"
       x2="126.463"
       y2="83.189"
       gradientUnits="userSpaceOnUse"
       class="svga-on-canvas-eyesiris-gradient-right-6"
       gradientTransform="matrix(1.0559676,0,0,1.0559676,-5.6247681,-6.4323598)">
      <stop
         id="SvgjsStop3665"
         stop-opacity="1"
         stop-color="#ffffff"
         offset="0" />
      <stop
         id="SvgjsStop3666"
         stop-opacity="0"
         stop-color="#ffffff"
         offset="1" />
    </linearGradient>
    <linearGradient
       id="SvgjsLinearGradient3668"
       x1="129.636"
       y1="79.822"
       x2="127.91"
       y2="81.879"
       gradientUnits="userSpaceOnUse"
       class="svga-on-canvas-eyesiris-gradient-right-7"
       gradientTransform="matrix(1.0559676,0,0,1.0559676,-5.6247681,-6.4323598)">
      <stop
         id="SvgjsStop3669"
         stop-opacity="1"
         stop-color="#ffffff"
         offset="0" />
      <stop
         id="SvgjsStop3670"
         stop-opacity="0"
         stop-color="#ffffff"
         offset="1" />
    </linearGradient>
    <radialGradient
       id="SvgjsRadialGradient3740"
       cx="100"
       cy="225"
       r="250"
       gradientUnits="userSpaceOnUse"
       class="svga-on-canvas-backs-gradient-single-1">
      <stop
         id="SvgjsStop3741"
         stop-opacity="0"
         stop-color="#ecf0f1"
         offset="0" />
      <stop
         id="SvgjsStop3742"
         stop-opacity="1"
         stop-color="#c6dce2"
         offset="1" />
    </radialGradient>
  </defs>
  <g
     id="svga-group-wrapper"
     transform="matrix(0.94699879,0,0,0.94699879,5.300148,6.1179376)"
     style="stroke-width:1.05597">
    <g
       id="svga-group-humanwrap-move"
       style="stroke-width:1.05597">
      <g
         id="svga-group-humanwrap"
         style="stroke-width:1.05597">
        <g
           id="svga-group-hair-back-move"
           style="stroke-width:1.05597">
          <g
             id="svga-group-hair-back"
             style="stroke-width:1.05597">
            <path
               id="SvgjsPath3560"
               d="m 100.5,100.5 h -1 v -1 h 1 z"
               fill="#decfbc"
               stroke-width="1.05597"
               opacity="1" />
          </g>
        </g>
        <g
           id="svga-group-humanbody-single"
           style="stroke-width:1.05597">
          <path
             id="SvgjsPath2914"
             d="m 195.417,199.778 c -2.196,-4.746 -8.195,-11.779 -14.86,-13.722 -8.239,-2.403 -26.837,-5.308 -33.733,-6.923 -5.528,-1.296 -16.662,-11.294 -20.564,-14.65 -0.7,-0.6 -1.273,-1.839 -1.287,-2.76 -0.139,-10.864 4.195,-39.724 4.195,-39.724 H 100 70.833 c 0,0 4.334,28.859 4.193,39.724 -0.011,0.921 -0.587,2.16 -1.285,2.76 -3.902,3.356 -15.036,13.354 -20.564,14.65 -6.897,1.615 -25.495,4.619 -33.733,7.022 -6.667,1.942 -12.664,8.876 -14.86,13.622 -3.708,8.008 -4.584,22.5 -4.584,35 h 100 100 c 0,-12.499 -0.877,-26.991 -4.583,-34.999 z"
             fill="#f0c7b1"
             stroke-width="1.05597"
             opacity="1"
             stroke="none" />
          <path
             id="SvgjsPath2915"
             d="m 159.156,184.058 c 24.342,3.542 34.586,8.708 37.794,50.721 H 200 c 0,-12.5 -0.877,-26.992 -4.583,-35 -2.196,-4.746 -8.195,-11.779 -14.86,-13.722 -8.239,-2.403 -26.837,-5.308 -33.733,-6.923 -5.528,-1.296 -18.242,-12.069 -21.643,-16.35 3.36,4.704 12.791,15.605 21.054,18.46 3.953,1.366 7.245,1.988 12.921,2.814 z m -105.39,-2.814 c 8.263,-2.854 17.693,-13.756 21.054,-18.46 -3.4,4.28 -16.114,15.054 -21.643,16.35 -6.896,1.615 -25.494,4.619 -33.733,7.022 -6.665,1.942 -12.664,8.876 -14.86,13.622 -3.706,8.008 -4.583,22.5 -4.583,35 h 3.05 c 3.188,-41.744 13.475,-47.183 37.794,-50.721 5.675,-0.825 8.968,-1.447 12.921,-2.813 z"
             fill="#ffe4d6"
             stroke-width="1.05597"
             opacity="1"
             stroke="none" />
          <path
             id="SvgjsPath2916"
             d="m 95.646,197.62 c 0,0 -5.074,-1.609 -7.083,-2.379 -10.449,-4.009 -44.395,-6.607 -44.395,-6.607 0,0 35.754,1.419 43.644,2.779 -0.458,-4.767 -3.017,-20.004 -3.017,-20.004 0,0 5.149,16.815 6.409,21.057 0.674,2.268 4.442,5.154 4.442,5.154 z m 10.799,-1.342 c -0.089,0.073 -0.191,0.168 -0.302,0.268 0.113,-0.085 0.215,-0.174 0.302,-0.268 z m -10.799,1.342 c 0,0 2.893,2.992 4.347,3.03 1.91,0.051 4.828,-2.899 6.151,-4.104 -1.265,0.957 -4.159,1.391 -5.31,1.436 -1.33,0.051 -5.188,-0.362 -5.188,-0.362 z m 21.018,-7.519 c -1.545,0.248 -4.386,0.789 -4.386,0.789 L 114.565,176 c -0.646,3.071 -4.474,16.211 -8.12,20.278 1.91,-1.616 6.158,-2.391 8.324,-2.704 10.236,-1.484 10.232,-1.483 41.062,-4.94 0,0 -29.071,-0.155 -39.167,1.467 z"
             fill="#e1ac8f"
             stroke-width="1.05597"
             opacity="1"
             stroke="none" />
          <path
             id="SvgjsPath2917"
             d="m 195.417,199.778 c -2.196,-4.746 -8.195,-11.779 -14.86,-13.722 -8.239,-2.403 -26.837,-5.308 -33.733,-6.923 -5.528,-1.296 -16.662,-11.294 -20.564,-14.65 -0.7,-0.6 -1.273,-1.839 -1.287,-2.76 -0.139,-10.864 4.195,-39.724 4.195,-39.724 H 100 70.833 c 0,0 4.334,28.859 4.193,39.724 -0.011,0.921 -0.587,2.16 -1.285,2.76 -3.902,3.356 -15.036,13.354 -20.564,14.65 -6.897,1.615 -25.495,4.619 -33.733,7.022 -6.667,1.942 -12.664,8.876 -14.86,13.622 -3.708,8.008 -4.584,22.5 -4.584,35 h 100 100 c 0,-12.499 -0.877,-26.991 -4.583,-34.999 z"
             fill="none"
             stroke="#c27b55"
             stroke-width="1.58395"
             opacity="1" />
        </g>
        <g
           id="svga-group-chinshadow-single"
           style="stroke-width:1.05597">
          <path
             id="SvgjsPath3556"
             d="m 100.021,171.866 c 8.183,0 16.871,-4.943 24.199,-10.675 -0.001,-6.702 1.451,-19.105 2.652,-28.205 -15.382,-2.247 -38.406,-2.279 -53.766,-0.152 1.184,8.96 2.625,21.206 2.671,28.02 7.342,5.913 16.045,11.012 24.244,11.012 z"
             fill="url(#SvgjsLinearGradient3557)"
             opacity="1"
             style="fill:url(#SvgjsLinearGradient3557);stroke-width:1.05597" />
        </g>
        <g
           id="svga-group-clothes-single"
           style="stroke-width:1.05597">
          <path
             id="SvgjsPath3705"
             d="m 42.77,235.757 1.323,-60.852 c 0,0 10.194,-2.487 16.635,-6.313 17.496,21.953 69.451,17.333 78.336,-0.62 1.489,0.525 2.721,1.197 4.262,1.713 5,3.386 9.213,4.494 9.213,4.494 l 0.935,61.685 C 139.188,236.052 42.77,235.757 42.77,235.757 Z"
             fill="#f5f4f5"
             stroke-width="1.05597"
             opacity="1" />
          <path
             id="SvgjsPath3706"
             d="m 154.014,177.705 c -4.236,-0.719 -7.611,-1.697 -9.452,-3.544 -5.343,10.025 -26.763,16.378 -33.855,17.309 20.554,-6.276 29.188,-10.813 32.598,-21.583 1.99,2.383 6.522,3.549 12.313,4.538 z M 52.67,174.381 c 1.454,-0.312 2.18,-1.234 3.623,-1.593 l -1.528,-1.867 c -3.114,2.234 -8.971,3.305 -15.9,4.424 l 0.188,3.738 c 3.956,-0.79 7.817,-1.788 11.429,-3.323 7.483,8.485 19.168,12.659 31.06,14.387 C 66.624,186.562 58.07,180.511 52.67,174.381 Z"
             fill="#ffffff"
             stroke-width="1.05597"
             opacity="1" />
          <path
             id="SvgjsPath3707"
             d="m 137.861,170.055 c -5.929,11.361 -50.74,24.595 -76.009,0.866 -1.571,0.615 -6.271,2.085 -6.271,2.085 18.406,23.08 72.345,23.227 86.702,-0.112 -0.062,-0.024 -2.962,-2.157 -4.422,-2.839 z"
             fill="#dfdde2"
             stroke-width="1.05597"
             opacity="1" />
          <path
             id="SvgjsPath3708"
             d="m 139.008,167.841 c -10.087,18.575 -62.578,21.204 -78.239,0.625 -5.72,1.556 -11.219,4.876 -16.756,5.707 l -1.243,61.584 110.703,0.107 -0.855,-62.386 c -3.369,-0.707 -6.501,-2.737 -9.254,-3.894 -1.522,-0.639 -2.814,-1.214 -4.356,-1.743 z m -78.618,1.246 c 13.903,23.086 68.817,18.455 79.419,0.099 1.286,0.499 1.615,0.696 3.106,1.183 -10.982,21.208 -65.306,27.967 -87.525,1.147 0.156,-0.04 3.433,-1.887 5,-2.429 z m -6.103,3.331 c 17.963,27.046 77.26,22.856 89.583,-1.287 1.771,1.391 4.53,2.989 7.936,3.735 l 1.66,59.08 -110.377,0.016 1.904,-58.299 c 2.784,-1.399 7.254,-2.431 9.294,-3.245 z"
             fill="#b8b6c9"
             stroke-width="1.05597"
             opacity="1" />
          <path
             id="SvgjsPath3709"
             d="m -4.529,235.566 c -2.574,-13.852 -2.292,-47.592 9.013,-47.521 13.136,-5.311 29.269,-11.404 42.802,-15.311 6.908,-7.246 13.436,-14.137 26.188,-21.314 0.389,2.599 1.874,8.541 0.011,11.773 -1.355,2.352 -5.783,5.576 -9.554,8.368 -2.029,2.72 -3.927,5.374 -6.599,9.089 5.168,22.301 9.601,33.78 10.097,53.123 0,0 -1.452,0.689 64.471,0.397 2.215,-22.339 4.993,-33.561 10.379,-54.098 0,0 -4.308,-5.014 -7.207,-8.87 -2.054,-1.997 -8.36,-7.532 -8.84,-8.651 -1.175,-2.741 -0.548,-6.188 0.11,-11.367 10.793,4.873 17,12.021 26.082,21.303 7.729,2.119 30.86,9.967 42.445,15.216 3.965,-0.11 6.203,1.999 7.872,5.466 5.405,11.195 4.126,27.297 2.18,42.789 -19.091,0.031 -155.034,2.212 -209.45,-0.392 z"
             fill="#f8feff"
             stroke-width="1.05597"
             opacity="1" />
          <path
             id="SvgjsPath3710"
             d="m 73.875,154.081 c 0.16,1.07 0.304,2.085 0.411,3.041 -0.218,0.266 -17.212,23.353 -17.336,23.525 4.176,-9.499 10.15,-19.342 16.925,-26.566 z m 52.178,0 c -0.159,1.07 -0.184,2.085 -0.291,3.041 0.218,0.266 16.931,22.469 17.054,22.642 -4.425,-8.85 -9.988,-18.459 -16.763,-25.683 z m 38.955,31.073 c -4.28,6.231 -5.194,8.382 -9.879,14.557 1.071,0 2.799,0.166 3.87,0.166 3.664,-6.285 3.671,-9.484 6.009,-14.723 z m 4.386,45.225 c 3.793,-8.9 6.934,-16.711 10.739,-25.624 l -1.247,-2.014 c -3.169,9.155 -6.532,18.458 -9.492,27.638 z M 41.048,199.877 c 1.071,0 2.799,-0.166 3.871,-0.166 -4.685,-6.175 -5.599,-6.561 -9.878,-12.792 2.336,5.239 2.343,6.673 6.007,12.958 z m -19.887,2.864 -1.247,2.014 c 3.806,8.913 4.765,16.724 8.559,25.624 -2.961,-9.18 -4.143,-18.483 -7.312,-27.638 z"
             fill="#d1ebf0"
             stroke-width="1.05597"
             opacity="1" />
          <path
             id="SvgjsPath3711"
             d="m 65.638,169.283 c 1.181,-1.646 5.237,-7.272 8.601,-12.561 0.988,5.457 -0.826,8.694 -8.601,12.561 z M 125.74,156.36 c 2.553,4.396 5.562,8.772 8.664,12.803 -8.404,-3.827 -8.969,-7.74 -8.664,-12.803 z"
             fill="#add9e0"
             stroke-width="1.05597"
             opacity="1" />
          <path
             id="SvgjsPath3712"
             d="m 126.318,151.359 c 0.008,-0.061 0.017,-0.118 0.023,-0.174 18.093,9.999 28.576,25.02 40.747,36.217 -0.448,0.721 -1.228,1.193 -1.687,1.905 -12.745,-9.698 -18.802,-24.361 -39.083,-37.948 z m -54.582,0.663 c -15.034,8.213 -36.242,33.357 -38.318,35.269 0.448,0.724 0.691,0.577 1.15,1.288 12.746,-9.697 16.225,-19.296 37.168,-36.557 z m 123.133,35.682 c -1,-0.799 -24.646,-10.039 -42.59,-14.969 33.698,16.299 45.587,18.545 51.471,24.321 -0.383,-0.999 -1.164,-9.567 -8.881,-9.352 z M 47.458,172.555 c -13.524,3.914 -30.839,10.098 -42.975,15.491 -5.364,0.106 -9.208,7.93 -10.031,16.084 7.462,-16.813 3.775,-5.51 53.006,-31.575 z"
             fill="#ffffff"
             stroke-width="1.05597"
             opacity="1" />
          <path
             id="SvgjsPath3713"
             d="m 206.6,210.062 c -0.34,-8.635 -3.055,-23.103 -11.691,-22.46 -0.714,-0.61 -20.822,-9.767 -42.285,-15.611 -7.353,-7.455 -16.515,-17.598 -26.371,-20.957 -0.711,6.428 -1.477,10.622 0.216,12.714 2.241,2.439 4.93,4.879 7.568,6.522 4.616,6.136 8.139,9.778 8.139,9.778 -5.43,20.703 -8.815,31.314 -10.973,53.688 H 68.798 c -2.157,-22.373 -5.543,-32.984 -10.973,-53.688 0,0 3.522,-3.643 8.139,-9.778 2.639,-1.644 5.327,-4.083 7.568,-6.522 1.692,-2.092 0.927,-6.286 0.216,-12.714 -9.856,3.359 -19.019,13.502 -26.371,20.957 C 25.914,177.836 5.806,186.992 5.092,187.602 -3.545,186.959 -6.26,201.427 -6.599,210.062 -7.01,220.549 -5.164,235 -5.014,236 h 210.029 c 0.15,-1.001 1.996,-15.451 1.585,-25.938 z M 72.984,163.194 c -2.258,2.233 -3.658,3.181 -6.473,5.282 4.829,-6.271 4.341,-5.433 7.708,-11.229 0.151,2.492 -0.786,5.504 -1.235,5.947 z m -76.156,70.834 c -1.082,-12.844 -2.916,-24.41 0.43,-36.992 1.281,-4.827 2.484,-8.095 7.455,-8.509 1.067,5.538 8.132,28.724 14.298,44.533 -6.226,-24.192 -5.311,-18.81 -8.219,-28.452 -0.964,-3.235 -1.854,-6.486 -2.979,-9.672 -0.783,-2.214 -1.65,-4.387 -2.262,-6.653 l 40.433,-14.865 c -0.279,0.283 -12.895,13.434 -13.199,13.804 1.847,3.021 7.816,7.222 10.845,11.758 -12.436,1.174 -18.508,3.173 -23,3.84 0.331,0.919 9.061,25.353 9.976,27.656 -1.479,-7.917 -4.816,-20.297 -8.637,-27.211 1.41,-0.179 18.077,-2.492 23.393,-3.477 -1.476,-2.854 -8.043,-8.437 -11.559,-12.619 20.646,-18.162 25.422,-27.402 39.593,-35.454 0.15,1.509 0.443,3.011 0.55,4.519 -15.795,23.533 -17.649,23.567 -17.649,23.567 4.585,17.81 10.532,35.824 10.532,54.073 z m 130.188,-70.834 c -0.448,-0.443 -1.386,-3.455 -1.235,-5.947 3.367,5.797 2.879,4.958 7.708,11.229 -2.815,-2.101 -4.216,-3.048 -6.473,-5.282 z m 76.156,70.834 -70,-0.154 c 0,-18.249 5.947,-36.264 10.532,-54.073 0,0 -1.854,-0.034 -17.649,-23.567 0.106,-1.508 0.399,-3.01 0.55,-4.519 14.171,8.052 18.946,17.292 39.593,35.454 -3.516,4.183 -10.083,9.766 -11.559,12.619 5.315,0.984 21.982,3.298 23.393,3.477 -3.82,6.914 -7.157,19.294 -8.637,27.211 0.915,-2.304 9.645,-26.737 9.976,-27.656 -4.492,-0.667 -10.564,-2.666 -23,-3.84 3.028,-4.536 8.998,-8.736 10.845,-11.758 -0.305,-0.37 -12.92,-13.521 -13.199,-13.804 0.001,0 40.433,14.865 40.433,14.865 -0.611,2.267 -1.479,4.439 -2.262,6.653 -1.125,3.186 -2.015,6.437 -2.979,9.672 -2.908,9.643 -1.993,4.26 -8.219,28.452 6.166,-15.81 13.23,-38.995 14.298,-44.533 4.971,0.414 6.174,3.682 7.455,8.509 3.345,12.582 1.511,24.149 0.429,36.992 z"
             fill="#8dc7d1"
             stroke-width="1.05597"
             opacity="1" />
        </g>
        <g
           id="svga-group-head"
           style="stroke-width:1.05597">
          <g
             id="svga-group-ears-left-move"
             style="stroke-width:1.05597">
            <g
               id="svga-group-ears-left"
               style="stroke-width:1.05597">
              <path
                 id="SvgjsPath2927"
                 d="M 45.671,84.344 C 44.186,81.882 39.344,75.145 35.64,76.09 c -3.012,0.772 -2.973,4.971 -3.206,7.455 -0.34,3.644 -0.464,9.992 0.525,12.568 0.951,2.473 3.96,7.252 5.828,9.075 2.299,2.235 5.97,9.358 6.422,10.097 0.711,1.168 2.137,2.84 4.325,2.708 3.071,-0.185 5.724,-3.087 5.965,-4.485 1.301,-7.59 -5.963,-22.758 -9.828,-29.164 z"
                 fill="#f0c7b1"
                 stroke="#c27b55"
                 stroke-width="1.58395"
                 opacity="1" />
              <path
                 id="SvgjsPath2928"
                 d="m 44.2,99.341 c -0.143,-0.563 0.007,-1.513 0.154,-2.429 0.133,-0.835 0.258,-1.624 0.182,-2.182 -0.289,-2.09 -1.915,-6.06 -2.976,-8.212 -1.223,-2.476 -3.199,-5.595 -5.679,-6.399 -1.024,-0.333 -1.699,0.065 -2.089,0.468 -0.288,0.296 -0.353,0.645 -0.259,0.687 0.095,0.041 0.307,-0.248 0.617,-0.519 0.254,-0.222 -0.508,-0.04 0,0 -0.205,1.04 -0.865,6.302 -0.41,10.143 0.358,3.022 1.05,5.279 1.263,5.617 0.031,0.356 0.083,0.705 0.16,1.043 1.002,4.41 7.518,10.177 9.034,11.82 0.28,0.303 0.574,0.483 0.646,0.409 0.072,-0.074 -0.101,-0.373 -0.379,-0.678 -1.498,-1.632 -7.971,-7.381 -8.939,-11.635 -1.027,-4.514 3.912,-11.207 4.699,-12.623 0.401,0.665 0.742,1.303 1.004,1.835 0.207,0.417 0.434,0.906 0.67,1.435 -0.463,0.738 -5.118,6.127 -3.934,10.441 0.438,1.591 3.822,3.642 5.131,4.203 0.72,0.31 0.99,0.772 1.304,1.306 0.364,0.624 0.033,2.229 1.23,2.739 0.244,0.104 0.464,0.146 0.659,0.146 0.338,0 0.594,-0.13 0.783,-0.284 0.02,0.271 0.019,0.619 0.009,0.941 -0.012,0.418 0.047,0.609 0.148,0.617 0.103,0.009 0.21,-0.174 0.223,-0.587 0.017,-0.51 0.014,-1.141 -0.077,-1.444 -0.269,-0.889 -1.088,-1.894 -1.957,-2.957 -0.854,-1.045 -0.995,-3.029 -1.217,-3.901 z m -9.231,-3.909 c -2.348,-6.923 1.283,-13.229 1.81,-14.179 1.012,0.399 2.562,2.193 3.221,3.235 -0.48,0.833 -4.933,6.287 -5.031,10.944 z m 10.803,11.032 c -1.084,-0.462 -0.706,-1.984 -1.056,-2.584 -0.318,-0.542 -0.646,-1.102 -1.479,-1.46 -0.18,-0.078 -0.379,-0.196 -0.583,-0.332 -2.682,-6.075 0.293,-8.73 1.039,-9.273 0.229,0.742 0.399,1.423 0.476,1.97 0.068,0.5 -0.059,1.298 -0.181,2.068 -0.153,0.955 -0.31,1.944 -0.147,2.584 0.244,0.953 0.411,2.97 1.291,4.048 0.781,0.956 1.583,1.942 1.857,2.746 -0.118,0.16 -0.489,0.544 -1.217,0.233 z"
                 fill="#c27b55"
                 stroke-width="1.05597"
                 opacity="1"
                 stroke="none" />
            </g>
          </g>
          <g
             id="svga-group-ears-right-move"
             style="stroke-width:1.05597">
            <g
               id="svga-group-ears-right"
               style="stroke-width:1.05597">
              <path
                 id="SvgjsPath2929"
                 d="m 154.066,84.344 c 1.486,-2.462 6.328,-9.199 10.031,-8.254 3.012,0.772 2.973,4.971 3.207,7.455 0.34,3.644 0.463,9.992 -0.525,12.568 -0.951,2.473 -3.961,7.252 -5.828,9.075 -2.299,2.235 -5.971,9.358 -6.422,10.097 -0.711,1.168 -2.137,2.84 -4.326,2.708 -3.07,-0.185 -5.723,-3.087 -5.965,-4.485 -1.3,-7.59 5.965,-22.758 9.828,-29.164 z"
                 fill="#f0c7b1"
                 stroke="#c27b55"
                 stroke-width="1.58395"
                 opacity="1" />
              <path
                 id="SvgjsPath2930"
                 d="m 154.322,103.243 c -0.869,1.063 -1.688,2.068 -1.957,2.957 -0.092,0.304 -0.094,0.935 -0.078,1.444 0.014,0.413 0.121,0.596 0.225,0.587 0.102,-0.008 0.16,-0.199 0.148,-0.617 -0.01,-0.322 -0.012,-0.67 0.008,-0.941 0.189,0.154 0.445,0.284 0.783,0.284 0.195,0 0.416,-0.042 0.66,-0.146 1.195,-0.511 0.865,-2.116 1.229,-2.739 0.314,-0.534 0.584,-0.997 1.305,-1.306 1.309,-0.561 4.693,-2.611 5.131,-4.203 1.184,-4.314 -3.471,-9.704 -3.934,-10.441 0.234,-0.529 0.463,-1.018 0.668,-1.435 0.264,-0.532 0.604,-1.171 1.006,-1.835 0.787,1.416 5.725,8.108 4.699,12.623 -0.969,4.254 -7.441,10.003 -8.939,11.635 -0.279,0.305 -0.453,0.604 -0.381,0.678 0.074,0.074 0.367,-0.106 0.646,-0.409 1.516,-1.643 8.031,-7.41 9.033,-11.82 0.078,-0.338 0.131,-0.687 0.162,-1.043 0.211,-0.337 0.904,-2.594 1.262,-5.617 0.455,-3.841 -0.205,-9.103 -0.41,-10.143 0.508,-0.04 -0.254,-0.222 0,0 0.311,0.271 0.523,0.56 0.617,0.519 0.094,-0.042 0.029,-0.39 -0.258,-0.687 -0.391,-0.403 -1.066,-0.801 -2.09,-0.468 -2.48,0.804 -4.457,3.923 -5.68,6.399 -1.061,2.152 -2.686,6.122 -2.975,8.212 -0.076,0.558 0.049,1.347 0.182,2.182 0.146,0.916 0.297,1.866 0.154,2.429 -0.222,0.871 -0.362,2.855 -1.216,3.901 z m 5.416,-18.755 c 0.66,-1.042 2.209,-2.835 3.221,-3.235 0.527,0.95 4.158,7.256 1.811,14.179 -0.098,-4.657 -4.551,-10.111 -5.032,-10.944 z m -6.988,21.741 c 0.273,-0.804 1.076,-1.79 1.857,-2.746 0.879,-1.078 1.047,-3.095 1.291,-4.048 0.162,-0.64 0.006,-1.629 -0.146,-2.584 -0.123,-0.77 -0.25,-1.568 -0.182,-2.068 0.076,-0.547 0.246,-1.228 0.475,-1.97 0.746,0.543 3.721,3.199 1.039,9.273 -0.203,0.136 -0.402,0.254 -0.584,0.332 -0.832,0.358 -1.16,0.918 -1.479,1.46 -0.35,0.6 0.029,2.123 -1.055,2.584 -0.728,0.313 -1.099,-0.071 -1.216,-0.233 z"
                 fill="#c27b55"
                 stroke-width="1.05597"
                 opacity="1"
                 stroke="none" />
            </g>
          </g>
          <g
             id="svga-group-faceshape-wrap"
             style="stroke-width:1.05597">
            <g
               id="svga-group-faceshape-single"
               style="stroke-width:1.05597">
              <path
                 id="SvgjsPath3553"
                 d="m 158.785,78.006 h -0.005 c -0.01,0.046 -12.197,40.27 -15.879,52.418 -0.715,2.358 -1.931,4.551 -3.556,6.386 -6.375,7.194 -23.768,25.057 -39.324,25.057 -15.849,0 -33.591,-19.045 -39.708,-26.214 -1.442,-1.688 -2.507,-3.633 -3.172,-5.765 C 53.534,118.337 41.015,78.24 41.004,78.194 H 41.003 C 39.705,73.202 39.009,67.963 39.001,62.56 38.949,28.536 66.155,0.92 99.773,0.867 c 33.621,-0.053 60.913,27.476 60.964,61.499 0.009,5.403 -0.669,10.644 -1.952,15.64 z"
                 fill="#f0c7b1"
                 stroke-width="1.05597"
                 opacity="1" />
              <path
                 id="SvgjsPath3554"
                 d="m 132.168,10.26 c 14.31,11.135 23.671,29.457 23.699,50.208 0.009,5.404 -0.615,10.645 -1.796,15.641 h -0.004 c -0.009,0.046 -11.223,40.27 -14.608,52.417 -0.658,2.358 -1.776,4.551 -3.271,6.385 -5.865,7.195 -21.866,25.059 -36.178,25.059 -14.582,0 -30.904,-19.047 -36.531,-26.215 -1.327,-1.689 -2.306,-3.633 -2.918,-5.764 C 57.243,116.439 45.725,76.342 45.715,76.296 H 45.714 C 44.52,71.304 43.88,66.065 43.872,60.662 43.843,39.835 53.22,21.423 67.585,10.25 50.392,21.159 38.967,40.508 39.001,62.56 c 0.008,5.403 0.704,10.643 2.002,15.634 h 10e-4 c 0.01,0.046 12.53,40.143 16.137,51.694 0.666,2.132 1.73,4.076 3.172,5.765 6.116,7.169 23.858,26.214 39.708,26.214 15.557,0 32.949,-17.862 39.324,-25.057 1.625,-1.835 2.841,-4.027 3.556,-6.386 3.682,-12.148 15.869,-52.372 15.879,-52.418 h 0.005 c 1.283,-4.997 1.961,-10.237 1.952,-15.641 -0.033,-21.976 -11.44,-41.23 -28.569,-52.105 z"
                 fill="#e8b9a0"
                 stroke-width="1.05597"
                 opacity="1" />
              <path
                 id="SvgjsPath3555"
                 d="m 158.785,78.006 h -0.005 c -0.01,0.046 -12.197,40.27 -15.879,52.418 -0.715,2.358 -1.931,4.551 -3.556,6.386 -6.375,7.194 -23.768,25.057 -39.324,25.057 -15.849,0 -33.591,-19.045 -39.708,-26.214 -1.442,-1.688 -2.507,-3.633 -3.172,-5.765 C 53.534,118.337 41.015,78.24 41.004,78.194 H 41.003 C 39.705,73.202 39.009,67.963 39.001,62.56 38.949,28.536 66.155,0.92 99.773,0.867 c 33.621,-0.053 60.913,27.476 60.964,61.499 0.009,5.403 -0.669,10.644 -1.952,15.64 z"
                 fill="none"
                 stroke="#c27b55"
                 stroke-width="1.58395"
                 opacity="1" />
            </g>
          </g>
          <g
             id="svga-group-mouth-single-move"
             style="stroke-width:1.05597">
            <g
               id="svga-group-mouth-single"
               style="stroke-width:1.05597">
              <path
                 id="SvgjsPath3035"
                 d="m 96.227,139.237 8.297,-0.207 c -0.961,4.47 -7.64,3.828 -8.297,0.207 z"
                 fill="url(#SvgjsLinearGradient3036)"
                 opacity="1"
                 style="fill:url(#SvgjsLinearGradient3036);stroke-width:1.05597" />
              <path
                 id="SvgjsPath3039"
                 d="m 96.343,139.52 c -0.371,-0.05 -0.315,-0.579 0.08,-0.542 0.043,0.006 4.308,0.546 7.878,-0.215 0.386,-0.075 0.5,0.455 0.13,0.534 -2.797,0.598 -6.416,0.458 -8.088,0.223 z m 3.74,-3.57 c -1.503,0 -2.96,-0.521 -4.424,-0.776 -1.64,-0.287 -3.274,-0.041 -4.915,0.104 -1.676,0.149 -5.333,-0.013 -6.365,-0.666 -0.578,-0.367 -0.47,-1.221 0.181,-1.449 0.614,-0.22 1.571,0.236 2.191,0.347 2.872,0.515 4.384,-0.034 6.902,-0.118 3.851,-0.116 4.26,1.501 9.064,0.53 5.165,-1.044 7.491,-0.254 11.197,-1.37 0.508,-0.154 1.112,-0.56 1.645,-0.286 0.615,0.318 0.585,1.185 -0.049,1.464 -3.406,1.502 -7.174,0.895 -10.955,1.526 -1.482,0.246 -2.959,0.694 -4.472,0.694 z"
                 fill="#c27b55"
                 stroke-width="1.05597"
                 opacity="1"
                 stroke="none" />
            </g>
          </g>
          <g
             id="svga-group-eyes-left-move"
             style="stroke-width:1.05597">
            <g
               id="svga-group-eyes-left"
               style="stroke-width:1.05597">
              <g
                 id="svga-group-eyesback-left"
                 style="stroke-width:1.05597">
                <path
                   id="SvgjsPath3565"
                   d="m 84.453,90.766 c 1.167,-0.017 2.233,-0.67 2.774,-1.704 0.547,-1.032 0.487,-2.282 -0.156,-3.256 -0.858,-1.297 -2.065,-2.568 -3.836,-4.115 -8.771,-0.813 -15.044,-1.003 -23.409,-0.268 0.851,4.473 3.058,6.582 8.789,9.568 6.187,0.487 10.674,0.436 15.838,-0.225 z"
                   fill="url(#SvgjsRadialGradient3566)"
                   opacity="1"
                   style="fill:url(#SvgjsRadialGradient3566);stroke-width:1.05597" />
              </g>
              <g
                 id="svga-group-eyesiriswrapper-left"
                 transform="translate(0.5,0.5)"
                 style="stroke-width:1.05597">
                <g
                   id="svga-group-eyesiriscontrol-left"
                   style="stroke-width:1.05597">
                  <g
                     id="svga-group-eyesiris-left"
                     style="stroke-width:1.05597">
                    <path
                       id="SvgjsPath3625"
                       d="m 80,84 c 0,3.313 -2.687,6 -6,6 -3.313,0 -6,-2.687 -6,-6 v 0 c 0,-3.314 2.687,-6 6,-6 3.313,-0.001 6,2.686 6,6 z"
                       fill="#4e60a3"
                       stroke-width="1.05597"
                       opacity="1" />
                    <path
                       id="SvgjsPath3626"
                       d="m 73.328,78.066 c -0.023,0.003 -0.047,0.006 -0.071,0.009 0.029,0.135 0.057,0.271 0.085,0.406 -0.006,-0.137 -0.009,-0.277 -0.014,-0.415 z m 0.013,0.414 c 0.07,1.972 0.185,3.729 0.517,4.364 0.175,-0.696 -0.123,-2.43 -0.517,-4.364 z m 0.518,4.365 c -0.043,0.167 -0.108,0.281 -0.208,0.319 -0.1,0.038 -0.226,-0.006 -0.368,-0.103 0.041,0.167 0.037,0.297 -0.036,0.378 -0.072,0.081 -0.201,0.101 -0.373,0.078 0.113,0.13 0.171,0.249 0.146,0.353 -0.027,0.104 -0.134,0.182 -0.293,0.242 0.159,0.063 0.266,0.141 0.291,0.245 0.025,0.104 -0.033,0.223 -0.145,0.352 0.17,-0.021 0.301,10e-4 0.371,0.082 0.071,0.081 0.075,0.212 0.035,0.379 0.141,-0.097 0.265,-0.139 0.365,-0.1 0.101,0.038 0.166,0.152 0.206,0.32 0.081,-0.152 0.171,-0.249 0.28,-0.26 0.104,-0.014 0.216,0.059 0.329,0.188 10e-4,-0.172 0.037,-0.299 0.127,-0.36 0.088,-0.061 0.219,-0.049 0.379,0.013 -0.078,-0.152 -0.105,-0.281 -0.055,-0.377 0.05,-0.095 0.173,-0.146 0.344,-0.166 -0.141,-0.099 -0.227,-0.2 -0.225,-0.308 0,-0.108 0.084,-0.209 0.227,-0.306 -0.17,-0.021 -0.291,-0.072 -0.342,-0.167 -0.049,-0.095 -0.022,-0.225 0.058,-0.377 -0.162,0.06 -0.292,0.072 -0.38,0.011 -0.089,-0.061 -0.125,-0.188 -0.125,-0.36 -0.112,0.128 -0.224,0.199 -0.33,0.185 -0.108,-0.014 -0.199,-0.108 -0.278,-0.261 z m 0.607,0.075 c 0.479,-0.535 1.021,-2.209 1.57,-4.104 -0.854,1.777 -1.569,3.386 -1.57,4.104 z m 1.569,-4.104 c 0.06,-0.122 0.121,-0.246 0.178,-0.37 -0.021,-0.007 -0.042,-0.017 -0.063,-0.026 -0.038,0.133 -0.076,0.266 -0.115,0.396 z m -1.063,4.454 c 0.672,-0.252 1.931,-1.483 3.297,-2.905 -1.581,1.176 -2.963,2.269 -3.297,2.905 z m 3.297,-2.905 c 0.1,-0.075 0.203,-0.15 0.305,-0.225 -0.014,-0.018 -0.03,-0.033 -0.042,-0.049 -0.087,0.09 -0.174,0.183 -0.263,0.274 z m -3.015,3.449 c 0.713,0.088 2.4,-0.417 4.272,-1.041 -1.948,0.308 -3.678,0.633 -4.272,1.041 z m 4.272,-1.04 c 0.11,-0.016 0.225,-0.034 0.337,-0.052 -0.004,-0.019 -0.009,-0.038 -0.014,-0.057 -0.107,0.036 -0.217,0.073 -0.323,0.109 z m -4.273,1.653 c 0.59,0.412 2.318,0.747 4.262,1.063 -1.865,-0.633 -3.548,-1.148 -4.262,-1.063 z m 4.263,1.063 c 0.095,0.033 0.191,0.067 0.285,0.098 0.005,-0.017 0.009,-0.033 0.012,-0.05 -0.097,-0.015 -0.198,-0.031 -0.297,-0.048 z m -4.551,-0.52 c 0.333,0.637 1.708,1.738 3.282,2.924 -1.359,-1.43 -2.609,-2.668 -3.282,-2.924 z m 3.283,2.922 c 0.059,0.062 0.12,0.126 0.179,0.189 0.01,-0.012 0.019,-0.021 0.03,-0.032 -0.07,-0.052 -0.142,-0.105 -0.209,-0.157 z M 74.46,85.317 c -0.003,0.719 0.703,2.331 1.547,4.113 -0.539,-1.897 -1.07,-3.575 -1.547,-4.113 z m 1.547,4.114 c 0.021,0.075 0.043,0.152 0.063,0.229 0.015,-0.006 0.025,-0.01 0.039,-0.014 -0.033,-0.072 -0.068,-0.146 -0.102,-0.215 z m -2.156,-4.042 c -0.336,0.637 -0.461,2.39 -0.542,4.361 0.404,-1.93 0.713,-3.663 0.542,-4.361 z m -0.542,4.361 c -0.017,0.075 -0.031,0.151 -0.047,0.228 0.014,0.003 0.025,0.003 0.039,0.005 0.002,-0.077 0.006,-0.157 0.008,-0.233 z M 73.28,85.169 c -0.596,0.407 -1.521,1.904 -2.508,3.61 1.254,-1.52 2.334,-2.912 2.508,-3.61 z m -2.508,3.61 c -0.053,0.063 -0.108,0.13 -0.162,0.193 0.013,0.008 0.024,0.014 0.038,0.024 0.04,-0.072 0.083,-0.145 0.124,-0.217 z m 2.103,-4.069 c -0.716,0.083 -2.231,0.978 -3.898,2.029 1.818,-0.762 3.418,-1.491 3.898,-2.029 z m -3.899,2.031 c -0.086,0.036 -0.174,0.072 -0.263,0.11 0.006,0.013 0.015,0.027 0.023,0.04 0.081,-0.049 0.161,-0.1 0.24,-0.15 z m 3.752,-2.628 c -0.671,-0.257 -2.429,-0.168 -4.395,-0.011 1.964,0.168 3.722,0.265 4.395,0.011 z m -4.395,-0.011 c -0.107,-0.01 -0.217,-0.02 -0.323,-0.029 0,0.019 -0.002,0.038 0,0.056 0.109,-0.01 0.218,-0.019 0.323,-0.027 z m 4.542,-0.583 c -0.473,-0.539 -2.069,-1.277 -3.881,-2.051 1.659,1.06 3.169,1.964 3.881,2.051 z m -3.881,-2.051 c -0.104,-0.067 -0.209,-0.134 -0.315,-0.201 -0.009,0.019 -0.019,0.038 -0.029,0.055 0.116,0.049 0.232,0.097 0.344,0.146 z m 4.29,1.593 c -0.169,-0.698 -1.241,-2.094 -2.485,-3.623 0.976,1.712 1.893,3.213 2.485,3.623 z m -2.485,-3.623 c -0.067,-0.115 -0.132,-0.232 -0.199,-0.349 -0.019,0.013 -0.039,0.026 -0.056,0.039 0.084,0.103 0.172,0.207 0.255,0.31 z"
                       fill="url(#SvgjsRadialGradient3627)"
                       opacity="0.7"
                       style="fill:url(#SvgjsRadialGradient3627);stroke-width:1.05597" />
                    <path
                       id="SvgjsPath3630"
                       d="m 74.886,78.086 c -0.024,-0.003 -0.047,-0.007 -0.07,-0.01 -0.007,0.138 -0.016,0.277 -0.024,0.414 0.03,-0.134 0.063,-0.27 0.094,-0.404 z m -0.095,0.403 c -0.442,1.922 -0.787,3.649 -0.629,4.35 0.349,-0.628 0.509,-2.38 0.629,-4.35 z m -0.63,4.35 c -0.084,0.15 -0.176,0.243 -0.283,0.254 -0.106,0.01 -0.216,-0.064 -0.327,-0.195 -0.004,0.171 -0.042,0.297 -0.133,0.356 -0.09,0.059 -0.221,0.045 -0.38,-0.021 0.076,0.155 0.101,0.285 0.049,0.378 -0.053,0.094 -0.176,0.142 -0.345,0.158 0.137,0.101 0.22,0.204 0.217,0.312 -0.002,0.107 -0.089,0.207 -0.231,0.302 0.169,0.024 0.29,0.079 0.337,0.174 0.048,0.096 0.018,0.225 -0.064,0.375 0.161,-0.057 0.292,-0.065 0.379,-0.002 0.087,0.063 0.12,0.19 0.116,0.363 0.117,-0.125 0.229,-0.196 0.337,-0.179 0.105,0.014 0.194,0.113 0.27,0.268 0.045,-0.167 0.113,-0.279 0.216,-0.315 0.101,-0.036 0.225,0.01 0.363,0.111 -0.036,-0.167 -0.029,-0.299 0.044,-0.378 0.073,-0.079 0.205,-0.096 0.376,-0.072 -0.111,-0.132 -0.168,-0.251 -0.138,-0.355 0.028,-0.104 0.136,-0.18 0.299,-0.237 -0.16,-0.064 -0.263,-0.145 -0.288,-0.25 -0.023,-0.105 0.037,-0.223 0.154,-0.349 -0.172,0.016 -0.301,-0.006 -0.37,-0.088 -0.07,-0.082 -0.072,-0.214 -0.028,-0.379 -0.142,0.094 -0.268,0.134 -0.367,0.093 -0.103,-0.041 -0.165,-0.156 -0.203,-0.324 z m 0.568,0.231 c 0.601,-0.394 1.557,-1.871 2.578,-3.558 -1.285,1.495 -2.391,2.863 -2.578,3.558 z m 2.578,-3.559 c 0.089,-0.102 0.18,-0.206 0.268,-0.311 -0.019,-0.013 -0.036,-0.028 -0.055,-0.042 -0.071,0.119 -0.142,0.238 -0.213,0.353 z m -2.18,4.027 c 0.715,-0.07 2.25,-0.934 3.937,-1.953 -1.833,0.727 -3.45,1.425 -3.937,1.953 z m 3.936,-1.954 c 0.117,-0.046 0.235,-0.092 0.354,-0.138 -0.01,-0.021 -0.021,-0.04 -0.028,-0.059 -0.108,0.066 -0.216,0.133 -0.326,0.197 z m -3.804,2.553 c 0.666,0.27 2.426,0.218 4.395,0.101 -1.961,-0.208 -3.716,-0.342 -4.395,-0.101 z m 4.395,0.1 c 0.112,0.013 0.226,0.025 0.339,0.037 0,-0.02 0.001,-0.039 0.002,-0.058 -0.114,0.007 -0.229,0.014 -0.341,0.021 z M 75.1,84.729 c 0.462,0.551 2.046,1.321 3.842,2.129 -1.639,-1.095 -3.131,-2.027 -3.842,-2.129 z m 3.841,2.129 c 0.083,0.057 0.167,0.114 0.25,0.168 0.009,-0.015 0.017,-0.03 0.025,-0.045 -0.09,-0.039 -0.184,-0.081 -0.275,-0.123 z M 74.68,85.179 c 0.156,0.701 1.2,2.12 2.414,3.674 -0.943,-1.734 -1.83,-3.254 -2.414,-3.674 z m 2.414,3.671 c 0.042,0.075 0.083,0.153 0.125,0.229 0.012,-0.009 0.024,-0.016 0.037,-0.024 -0.054,-0.068 -0.109,-0.138 -0.162,-0.205 z m -2.991,-3.467 c -0.188,0.693 0.076,2.433 0.43,4.373 -0.031,-1.972 -0.109,-3.73 -0.43,-4.373 z m 0.429,4.373 c 0.001,0.078 0.003,0.158 0.003,0.238 0.014,-0.002 0.027,-0.004 0.041,-0.004 -0.014,-0.077 -0.029,-0.157 -0.044,-0.234 z m -1.036,-4.462 c -0.49,0.528 -1.064,2.189 -1.652,4.072 0.889,-1.759 1.637,-3.353 1.652,-4.072 z m -1.653,4.072 c -0.035,0.068 -0.07,0.138 -0.104,0.208 0.012,0.006 0.023,0.009 0.036,0.015 0.022,-0.073 0.046,-0.15 0.068,-0.223 z M 73,84.934 c -0.68,0.239 -1.962,1.446 -3.357,2.838 1.607,-1.144 3.009,-2.209 3.357,-2.838 z m -3.356,2.838 c -0.067,0.047 -0.137,0.098 -0.205,0.145 0.01,0.011 0.02,0.02 0.029,0.032 0.057,-0.059 0.117,-0.117 0.176,-0.177 z m 3.084,-3.387 c -0.713,-0.104 -2.407,0.368 -4.291,0.952 1.955,-0.266 3.688,-0.556 4.291,-0.952 z m -4.291,0.954 c -0.092,0.013 -0.187,0.024 -0.283,0.039 0.003,0.015 0.008,0.03 0.013,0.044 0.091,-0.026 0.181,-0.056 0.27,-0.083 z m 4.304,-1.567 c -0.582,-0.423 -2.303,-0.792 -4.242,-1.149 1.854,0.671 3.526,1.22 4.242,1.149 z m -4.242,-1.149 c -0.101,-0.037 -0.205,-0.075 -0.305,-0.112 -0.005,0.019 -0.011,0.037 -0.015,0.054 0.109,0.019 0.216,0.039 0.32,0.058 z m 4.539,0.612 c -0.318,-0.643 -1.668,-1.769 -3.219,-2.986 1.328,1.455 2.553,2.719 3.219,2.986 z m -3.22,-2.985 c -0.083,-0.091 -0.167,-0.183 -0.251,-0.275 -0.014,0.016 -0.029,0.031 -0.042,0.046 0.099,0.076 0.198,0.152 0.293,0.229 z m 3.733,2.649 c 0.017,-0.718 -0.656,-2.344 -1.464,-4.142 0.5,1.906 0.998,3.593 1.464,4.142 z m -1.464,-4.142 c -0.034,-0.128 -0.067,-0.259 -0.101,-0.389 -0.021,0.007 -0.043,0.015 -0.063,0.023 0.054,0.122 0.11,0.245 0.164,0.366 z"
                       fill="url(#SvgjsRadialGradient3631)"
                       opacity="0.4"
                       style="fill:url(#SvgjsRadialGradient3631);stroke-width:1.05597" />
                    <path
                       id="SvgjsPath3634"
                       d="m 76.354,84 c 0,1.3 -1.053,2.353 -2.353,2.353 -1.299,0 -2.354,-1.053 -2.354,-2.353 0,-1.299 1.055,-2.354 2.354,-2.354 1.3,0 2.353,1.054 2.353,2.354 z"
                       fill="#4e60a3"
                       stroke-width="1.05597"
                       opacity="1" />
                    <path
                       id="SvgjsPath3635"
                       d="m 76.354,84 c 0,1.3 -1.053,2.353 -2.353,2.353 -1.299,0 -2.354,-1.053 -2.354,-2.353 0,-1.299 1.055,-2.354 2.354,-2.354 1.3,0 2.353,1.054 2.353,2.354 z"
                       fill="#000000"
                       stroke-width="1.05597"
                       opacity="0.9" />
                    <path
                       id="SvgjsPath3636"
                       d="m 70.717,86.748 c 0.449,-0.302 1.059,-0.18 1.36,0.268 0.301,0.449 0.182,1.059 -0.268,1.36 -0.45,0.303 -1.059,0.183 -1.36,-0.267 -0.301,-0.449 -0.181,-1.06 0.268,-1.361 z"
                       fill="url(#SvgjsLinearGradient3637)"
                       opacity="0.5"
                       style="fill:url(#SvgjsLinearGradient3637);stroke-width:1.05597" />
                    <path
                       id="SvgjsPath3640"
                       d="m 75.86,83.672 c -0.251,0.374 -0.969,0.331 -1.606,-0.096 -0.638,-0.427 -0.95,-1.078 -0.7,-1.451 v -0.001 c 0.25,-0.374 0.969,-0.331 1.605,0.097 0.639,0.426 0.951,1.076 0.701,1.451 z"
                       fill="url(#SvgjsLinearGradient3641)"
                       opacity="0.5"
                       style="fill:url(#SvgjsLinearGradient3641);stroke-width:1.05597" />
                    <path
                       id="SvgjsPath3644"
                       d="m 78.716,82.673 c -0.568,0.873 -2.036,0.925 -3.275,0.117 -1.24,-0.808 -1.784,-2.17 -1.215,-3.043 0.568,-0.872 2.036,-0.924 3.275,-0.117 1.239,0.809 1.783,2.172 1.215,3.043 z"
                       fill="url(#SvgjsLinearGradient3645)"
                       opacity="0.75"
                       style="fill:url(#SvgjsLinearGradient3645);stroke-width:1.05597" />
                  </g>
                </g>
              </g>
              <g
                 id="svga-group-eyesfront-left"
                 style="stroke-width:1.05597">
                <path
                   id="SvgjsPath3590"
                   d="m 54.8,84.999 c 0,13.807 8.507,25 19,25 10.493,0 19,-11.193 19,-25 0,-13.807 -8.507,-25 -19,-25 -10.493,0 -19,11.193 -19,25 z m 5.026,-3.576 c 8.365,-0.735 14.638,-0.545 23.409,0.268 1.771,1.546 2.978,2.818 3.836,4.115 0.644,0.974 0.703,2.225 0.156,3.256 -0.541,1.034 -1.607,1.688 -2.774,1.704 -5.164,0.661 -9.651,0.711 -15.838,0.225 -5.731,-2.987 -7.938,-5.095 -8.789,-9.568 z"
                   fill="#f0c7b1"
                   stroke-width="1.05597"
                   opacity="1" />
                <path
                   id="SvgjsPath3591"
                   d="M 58.697,86.046 C 58.622,92.95 67.344,98.513 76.735,98.48 86.124,98.44 93.722,92.817 93.697,85.912 93.674,79.009 86.05,73.445 76.657,73.481 67.265,73.519 58.799,76.602 58.697,86.046 Z m 1.129,-4.623 c 8.365,-0.735 14.638,-0.545 23.409,0.268 1.771,1.546 2.978,2.818 3.836,4.115 0.644,0.974 0.703,2.225 0.156,3.256 -0.541,1.034 -1.607,1.688 -2.774,1.704 -5.164,0.661 -9.651,0.711 -15.838,0.225 -5.731,-2.987 -7.938,-5.095 -8.789,-9.568 z"
                   fill="url(#SvgjsRadialGradient3592)"
                   opacity="1"
                   style="fill:url(#SvgjsRadialGradient3592);stroke-width:1.05597" />
                <path
                   id="SvgjsPath3596"
                   d="m 84.453,90.766 c 1.167,-0.017 2.233,-0.67 2.774,-1.704 0.547,-1.032 0.487,-2.282 -0.156,-3.256 -0.858,-1.297 -2.065,-2.568 -3.836,-4.115 -8.771,-0.813 -15.044,-1.003 -23.409,-0.268 0.851,4.473 3.058,6.582 8.789,9.568 6.187,0.487 10.674,0.436 15.838,-0.225 z"
                   fill="url(#SvgjsRadialGradient3597)"
                   opacity="1"
                   style="fill:url(#SvgjsRadialGradient3597);stroke-width:1.05597" />
                <path
                   id="SvgjsPath3600"
                   d="m 85.832,79 c -0.27,-0.249 -3.77,-0.621 -6.501,-1.104 -2.73,-0.483 -20.217,-0.348 -20.217,-0.348 0,0 17.112,-0.811 20.164,-0.203 3.057,0.607 6.554,1.655 6.554,1.655 z"
                   fill="#c27b55"
                   stroke-width="1.05597"
                   opacity="1" />
                <path
                   id="SvgjsPath3601"
                   d="m 88.835,89.633 c -2.075,-3.454 -2.899,-5.102 -6.004,-7.55 -6.037,-1.096 -13.04,-0.92 -22.203,-0.565 0.707,3.869 2.669,6.058 8.608,9.126 6.664,0.519 12.018,0.495 18.261,0 -6.553,0.977 -11.234,1.358 -19.3,0.982 C 62.426,89.518 59.12,85.743 56.73,81.171 l -1.829,-0.88 c 12.077,-1.006 21.95,-0.979 30.924,-0.044 l 4.076,3.871 -3.784,-1.56 c 1.424,2.867 2.233,4.831 2.718,7.075 z"
                   fill="#000000"
                   stroke-width="1.05597"
                   opacity="1" />
              </g>
            </g>
          </g>
          <g
             id="svga-group-eyes-right-move"
             style="stroke-width:1.05597">
            <g
               id="svga-group-eyes-right"
               style="stroke-width:1.05597">
              <g
                 id="svga-group-eyesback-right"
                 style="stroke-width:1.05597">
                <path
                   id="SvgjsPath3573"
                   d="m 115.147,90.766 c -1.167,-0.017 -2.233,-0.67 -2.774,-1.704 -0.547,-1.032 -0.487,-2.282 0.156,-3.256 0.858,-1.297 2.065,-2.568 3.836,-4.115 8.771,-0.813 15.044,-1.003 23.409,-0.268 -0.851,4.473 -3.058,6.582 -8.789,9.568 -6.186,0.487 -10.673,0.436 -15.838,-0.225 z"
                   fill="url(#SvgjsRadialGradient3574)"
                   opacity="1"
                   style="fill:url(#SvgjsRadialGradient3574);stroke-width:1.05597" />
              </g>
              <g
                 id="svga-group-eyesiriswrapper-right"
                 transform="translate(-0.5,0.5)"
                 style="stroke-width:1.05597">
                <g
                   id="svga-group-eyesiriscontrol-right"
                   style="stroke-width:1.05597">
                  <g
                     id="svga-group-eyesiris-right"
                     style="stroke-width:1.05597">
                    <path
                       id="SvgjsPath3648"
                       d="m 132,84 c 0,3.313 -2.687,6 -5.999,6 C 122.688,90 120,87.313 120,84 v 0 c 0,-3.314 2.688,-6 6.001,-6 3.312,-0.001 5.999,2.686 5.999,6 z"
                       fill="#4e60a3"
                       stroke-width="1.05597"
                       opacity="1" />
                    <path
                       id="SvgjsPath3649"
                       d="m 125.328,78.066 c -0.023,0.003 -0.047,0.006 -0.071,0.009 0.029,0.135 0.058,0.271 0.085,0.406 -0.006,-0.137 -0.009,-0.277 -0.014,-0.415 z m 0.013,0.414 c 0.069,1.972 0.185,3.729 0.518,4.364 0.174,-0.696 -0.124,-2.43 -0.518,-4.364 z m 0.517,4.365 c -0.042,0.167 -0.108,0.281 -0.207,0.319 -0.101,0.038 -0.226,-0.006 -0.367,-0.103 0.04,0.167 0.036,0.297 -0.036,0.378 -0.072,0.081 -0.201,0.101 -0.372,0.078 0.112,0.13 0.171,0.249 0.146,0.353 -0.028,0.104 -0.134,0.182 -0.293,0.242 0.158,0.063 0.265,0.141 0.29,0.245 0.025,0.104 -0.032,0.223 -0.145,0.352 0.17,-0.021 0.3,10e-4 0.37,0.082 0.071,0.081 0.075,0.212 0.035,0.379 0.141,-0.097 0.266,-0.139 0.365,-0.1 0.102,0.038 0.166,0.152 0.206,0.32 0.08,-0.152 0.172,-0.249 0.279,-0.26 0.105,-0.014 0.217,0.059 0.329,0.188 0.002,-0.172 0.037,-0.299 0.128,-0.36 0.087,-0.061 0.219,-0.049 0.379,0.013 -0.078,-0.152 -0.104,-0.281 -0.056,-0.377 0.051,-0.095 0.174,-0.146 0.345,-0.166 -0.141,-0.099 -0.228,-0.2 -0.225,-0.308 -10e-4,-0.108 0.084,-0.209 0.227,-0.306 -0.171,-0.021 -0.291,-0.072 -0.342,-0.167 -0.05,-0.095 -0.022,-0.225 0.057,-0.377 -0.161,0.06 -0.291,0.072 -0.38,0.011 -0.089,-0.061 -0.124,-0.188 -0.125,-0.36 -0.111,0.128 -0.224,0.199 -0.33,0.185 -0.107,-0.014 -0.198,-0.108 -0.278,-0.261 z m 0.608,0.075 c 0.479,-0.535 1.021,-2.209 1.569,-4.104 -0.853,1.777 -1.567,3.386 -1.569,4.104 z m 1.569,-4.104 c 0.06,-0.122 0.121,-0.246 0.179,-0.37 -0.021,-0.007 -0.042,-0.017 -0.063,-0.026 -0.039,0.133 -0.077,0.266 -0.116,0.396 z m -1.063,4.454 c 0.673,-0.252 1.932,-1.483 3.298,-2.905 -1.582,1.176 -2.963,2.269 -3.298,2.905 z m 3.298,-2.905 c 0.1,-0.075 0.202,-0.15 0.305,-0.225 -0.015,-0.018 -0.03,-0.033 -0.042,-0.049 -0.088,0.09 -0.175,0.183 -0.263,0.274 z m -3.015,3.449 c 0.713,0.088 2.399,-0.417 4.271,-1.041 -1.948,0.308 -3.678,0.633 -4.271,1.041 z m 4.271,-1.04 c 0.11,-0.016 0.225,-0.034 0.337,-0.052 -0.005,-0.019 -0.009,-0.038 -0.014,-0.057 -0.107,0.036 -0.217,0.073 -0.323,0.109 z m -4.273,1.653 c 0.591,0.412 2.318,0.747 4.263,1.063 -1.866,-0.633 -3.549,-1.148 -4.263,-1.063 z m 4.263,1.063 c 0.095,0.033 0.19,0.067 0.285,0.098 0.005,-0.017 0.009,-0.033 0.013,-0.05 -0.098,-0.015 -0.2,-0.031 -0.298,-0.048 z m -4.551,-0.52 c 0.332,0.637 1.708,1.738 3.282,2.924 -1.358,-1.43 -2.609,-2.668 -3.282,-2.924 z m 3.283,2.922 c 0.059,0.062 0.119,0.126 0.178,0.189 0.01,-0.012 0.02,-0.021 0.031,-0.032 -0.07,-0.052 -0.142,-0.105 -0.209,-0.157 z m -3.787,-2.575 c -0.003,0.719 0.702,2.331 1.547,4.113 -0.54,-1.897 -1.071,-3.575 -1.547,-4.113 z m 1.547,4.114 c 0.021,0.075 0.043,0.152 0.063,0.229 0.015,-0.006 0.026,-0.01 0.039,-0.014 -0.034,-0.072 -0.069,-0.146 -0.102,-0.215 z m -2.157,-4.042 c -0.336,0.637 -0.461,2.39 -0.542,4.361 0.404,-1.93 0.713,-3.663 0.542,-4.361 z m -0.542,4.361 c -0.017,0.075 -0.031,0.151 -0.047,0.228 0.014,0.003 0.024,0.003 0.039,0.005 0.002,-0.077 0.006,-0.157 0.008,-0.233 z m -0.03,-4.581 c -0.596,0.407 -1.521,1.904 -2.508,3.61 1.255,-1.52 2.334,-2.912 2.508,-3.61 z m -2.508,3.61 c -0.052,0.063 -0.107,0.13 -0.161,0.193 0.013,0.008 0.024,0.014 0.037,0.024 0.041,-0.072 0.084,-0.145 0.124,-0.217 z m 2.103,-4.069 c -0.716,0.083 -2.23,0.978 -3.897,2.029 1.818,-0.762 3.418,-1.491 3.897,-2.029 z m -3.897,2.031 c -0.087,0.036 -0.175,0.072 -0.263,0.11 0.006,0.013 0.014,0.027 0.023,0.04 0.08,-0.049 0.16,-0.1 0.24,-0.15 z m 3.752,-2.628 c -0.672,-0.257 -2.43,-0.168 -4.396,-0.011 1.965,0.168 3.722,0.265 4.396,0.011 z m -4.396,-0.011 c -0.106,-0.01 -0.217,-0.02 -0.322,-0.029 -10e-4,0.019 -0.003,0.038 -10e-4,0.056 0.109,-0.01 0.218,-0.019 0.323,-0.027 z m 4.543,-0.583 c -0.474,-0.539 -2.069,-1.277 -3.882,-2.051 1.659,1.06 3.169,1.964 3.882,2.051 z m -3.882,-2.051 c -0.104,-0.067 -0.21,-0.134 -0.315,-0.201 -0.009,0.019 -0.019,0.038 -0.028,0.055 0.115,0.049 0.232,0.097 0.343,0.146 z m 4.29,1.593 c -0.169,-0.698 -1.241,-2.094 -2.485,-3.623 0.976,1.712 1.893,3.213 2.485,3.623 z m -2.485,-3.623 c -0.067,-0.115 -0.133,-0.232 -0.198,-0.349 -0.019,0.013 -0.039,0.026 -0.057,0.039 0.085,0.103 0.172,0.207 0.255,0.31 z"
                       fill="url(#SvgjsRadialGradient3650)"
                       opacity="0.7"
                       style="fill:url(#SvgjsRadialGradient3650);stroke-width:1.05597" />
                    <path
                       id="SvgjsPath3653"
                       d="m 126.886,78.086 c -0.024,-0.003 -0.047,-0.007 -0.07,-0.01 -0.008,0.138 -0.016,0.277 -0.024,0.414 0.029,-0.134 0.062,-0.27 0.094,-0.404 z m -0.095,0.403 c -0.443,1.922 -0.787,3.649 -0.63,4.35 0.35,-0.628 0.51,-2.38 0.63,-4.35 z m -0.63,4.35 c -0.084,0.15 -0.177,0.243 -0.283,0.254 -0.106,0.01 -0.216,-0.064 -0.327,-0.195 -0.004,0.171 -0.042,0.297 -0.133,0.356 -0.09,0.059 -0.221,0.045 -0.38,-0.021 0.075,0.155 0.101,0.285 0.049,0.378 -0.054,0.094 -0.176,0.142 -0.346,0.158 0.138,0.101 0.22,0.204 0.217,0.312 -0.002,0.107 -0.089,0.207 -0.23,0.302 0.17,0.024 0.289,0.079 0.337,0.174 0.048,0.096 0.018,0.225 -0.064,0.375 0.162,-0.057 0.293,-0.065 0.38,-0.002 0.087,0.063 0.12,0.19 0.115,0.363 0.117,-0.125 0.229,-0.196 0.337,-0.179 0.105,0.014 0.194,0.113 0.27,0.268 0.046,-0.167 0.113,-0.279 0.216,-0.315 0.101,-0.036 0.226,0.01 0.363,0.111 -0.035,-0.167 -0.028,-0.299 0.045,-0.378 0.072,-0.079 0.204,-0.096 0.375,-0.072 -0.11,-0.132 -0.168,-0.251 -0.138,-0.355 0.027,-0.104 0.136,-0.18 0.299,-0.237 -0.159,-0.064 -0.263,-0.145 -0.288,-0.25 -0.022,-0.105 0.038,-0.223 0.154,-0.349 -0.172,0.016 -0.302,-0.006 -0.37,-0.088 -0.07,-0.082 -0.072,-0.214 -0.027,-0.379 -0.143,0.094 -0.269,0.134 -0.368,0.093 -0.102,-0.041 -0.166,-0.156 -0.203,-0.324 z m 0.568,0.231 c 0.601,-0.394 1.557,-1.871 2.578,-3.558 -1.285,1.495 -2.391,2.863 -2.578,3.558 z m 2.578,-3.559 c 0.089,-0.102 0.18,-0.206 0.269,-0.311 -0.02,-0.013 -0.037,-0.028 -0.056,-0.042 -0.071,0.119 -0.142,0.238 -0.213,0.353 z m -2.18,4.027 c 0.715,-0.07 2.249,-0.934 3.937,-1.953 -1.833,0.727 -3.45,1.425 -3.937,1.953 z m 3.936,-1.954 c 0.116,-0.046 0.234,-0.092 0.354,-0.138 -0.01,-0.021 -0.021,-0.04 -0.028,-0.059 -0.108,0.066 -0.216,0.133 -0.326,0.197 z m -3.804,2.553 c 0.666,0.27 2.426,0.218 4.396,0.101 -1.963,-0.208 -3.717,-0.342 -4.396,-0.101 z m 4.395,0.1 c 0.111,0.013 0.226,0.025 0.339,0.037 0.001,-0.02 0.001,-0.039 0.002,-0.058 -0.113,0.007 -0.229,0.014 -0.341,0.021 z m -4.554,0.492 c 0.463,0.551 2.046,1.321 3.842,2.129 -1.639,-1.095 -3.131,-2.027 -3.842,-2.129 z m 3.841,2.129 c 0.082,0.057 0.167,0.114 0.25,0.168 0.009,-0.015 0.018,-0.03 0.024,-0.045 -0.089,-0.039 -0.183,-0.081 -0.274,-0.123 z m -4.26,-1.679 c 0.155,0.701 1.199,2.12 2.413,3.674 -0.943,-1.734 -1.829,-3.254 -2.413,-3.674 z m 2.414,3.671 c 0.041,0.075 0.082,0.153 0.124,0.229 0.012,-0.009 0.023,-0.016 0.037,-0.024 -0.054,-0.068 -0.11,-0.138 -0.161,-0.205 z m -2.992,-3.467 c -0.188,0.693 0.076,2.433 0.43,4.373 -0.031,-1.972 -0.109,-3.73 -0.43,-4.373 z m 0.429,4.373 c 0.001,0.078 0.003,0.158 0.003,0.238 0.015,-0.002 0.026,-0.004 0.04,-0.004 -0.013,-0.077 -0.028,-0.157 -0.043,-0.234 z m -1.037,-4.462 c -0.489,0.528 -1.064,2.189 -1.652,4.072 0.89,-1.759 1.637,-3.353 1.652,-4.072 z m -1.652,4.072 c -0.035,0.068 -0.069,0.138 -0.104,0.208 0.012,0.006 0.022,0.009 0.035,0.015 0.023,-0.073 0.047,-0.15 0.069,-0.223 z M 125,84.934 c -0.68,0.239 -1.961,1.446 -3.356,2.838 1.606,-1.144 3.008,-2.209 3.356,-2.838 z m -3.356,2.838 c -0.067,0.047 -0.138,0.098 -0.205,0.145 0.01,0.011 0.02,0.02 0.029,0.032 0.057,-0.059 0.118,-0.117 0.176,-0.177 z m 3.084,-3.387 c -0.713,-0.104 -2.406,0.368 -4.29,0.952 1.954,-0.266 3.688,-0.556 4.29,-0.952 z m -4.29,0.954 c -0.093,0.013 -0.188,0.024 -0.283,0.039 0.004,0.015 0.008,0.03 0.013,0.044 0.09,-0.026 0.18,-0.056 0.27,-0.083 z m 4.303,-1.567 c -0.582,-0.423 -2.303,-0.792 -4.242,-1.149 1.854,0.671 3.526,1.22 4.242,1.149 z m -4.242,-1.149 c -0.101,-0.037 -0.205,-0.075 -0.305,-0.112 -0.006,0.019 -0.011,0.037 -0.015,0.054 0.108,0.019 0.216,0.039 0.32,0.058 z m 4.539,0.612 c -0.318,-0.643 -1.669,-1.769 -3.22,-2.986 1.329,1.455 2.554,2.719 3.22,2.986 z m -3.22,-2.985 c -0.083,-0.091 -0.167,-0.183 -0.251,-0.275 -0.015,0.016 -0.028,0.031 -0.043,0.046 0.099,0.076 0.2,0.152 0.294,0.229 z m 3.733,2.649 c 0.017,-0.718 -0.656,-2.344 -1.464,-4.142 0.501,1.906 0.998,3.593 1.464,4.142 z m -1.464,-4.142 c -0.034,-0.128 -0.067,-0.259 -0.102,-0.389 -0.021,0.007 -0.043,0.015 -0.063,0.023 0.055,0.122 0.111,0.245 0.165,0.366 z"
                       fill="url(#SvgjsRadialGradient3654)"
                       opacity="0.4"
                       style="fill:url(#SvgjsRadialGradient3654);stroke-width:1.05597" />
                    <path
                       id="SvgjsPath3657"
                       d="m 128.354,84 c 0,1.3 -1.054,2.353 -2.353,2.353 -1.3,0 -2.354,-1.053 -2.354,-2.353 0,-1.299 1.055,-2.354 2.354,-2.354 1.301,0 2.353,1.054 2.353,2.354 z"
                       fill="#4e60a3"
                       stroke-width="1.05597"
                       opacity="1" />
                    <path
                       id="SvgjsPath3658"
                       d="m 128.354,84 c 0,1.3 -1.054,2.353 -2.353,2.353 -1.3,0 -2.354,-1.053 -2.354,-2.353 0,-1.299 1.055,-2.354 2.354,-2.354 1.301,0 2.353,1.054 2.353,2.354 z"
                       fill="#000000"
                       stroke-width="1.05597"
                       opacity="0.9" />
                    <path
                       id="SvgjsPath3659"
                       d="m 122.718,86.748 c 0.448,-0.302 1.059,-0.18 1.359,0.268 0.302,0.449 0.183,1.059 -0.268,1.36 -0.45,0.303 -1.059,0.183 -1.359,-0.267 -0.302,-0.449 -0.182,-1.06 0.268,-1.361 z"
                       fill="url(#SvgjsLinearGradient3660)"
                       opacity="0.5"
                       style="fill:url(#SvgjsLinearGradient3660);stroke-width:1.05597" />
                    <path
                       id="SvgjsPath3663"
                       d="m 127.859,83.672 c -0.251,0.374 -0.969,0.331 -1.605,-0.096 -0.638,-0.427 -0.95,-1.078 -0.7,-1.451 l 0.001,-0.001 c 0.25,-0.374 0.969,-0.331 1.605,0.097 0.638,0.426 0.95,1.076 0.699,1.451 z"
                       fill="url(#SvgjsLinearGradient3664)"
                       opacity="0.5"
                       style="fill:url(#SvgjsLinearGradient3664);stroke-width:1.05597" />
                    <path
                       id="SvgjsPath3667"
                       d="m 130.717,82.673 c -0.569,0.873 -2.036,0.925 -3.276,0.117 -1.239,-0.808 -1.784,-2.17 -1.215,-3.043 0.568,-0.872 2.035,-0.924 3.275,-0.117 1.239,0.809 1.783,2.172 1.216,3.043 z"
                       fill="url(#SvgjsLinearGradient3668)"
                       opacity="0.75"
                       style="fill:url(#SvgjsLinearGradient3668);stroke-width:1.05597" />
                  </g>
                </g>
              </g>
              <g
                 id="svga-group-eyesfront-right"
                 style="stroke-width:1.05597">
                <path
                   id="SvgjsPath3611"
                   d="m 125.801,59.999 c -10.493,0 -19,11.193 -19,25 0,13.807 8.507,25 19,25 10.493,0 19,-11.193 19,-25 0,-13.807 -8.507,-25 -19,-25 z m 5.184,30.992 c -6.187,0.487 -10.674,0.436 -15.838,-0.225 -1.167,-0.017 -2.233,-0.67 -2.774,-1.704 -0.547,-1.032 -0.487,-2.282 0.156,-3.256 0.858,-1.297 2.065,-2.568 3.836,-4.115 8.771,-0.813 15.044,-1.003 23.409,-0.268 -0.85,4.473 -3.057,6.581 -8.789,9.568 z"
                   fill="#f0c7b1"
                   stroke-width="1.05597"
                   opacity="1" />
                <path
                   id="SvgjsPath3612"
                   d="m 122.943,73.48 c -9.393,-0.036 -17.017,5.528 -17.04,12.431 -0.025,6.906 7.573,12.529 16.962,12.568 9.391,0.034 18.113,-5.529 18.038,-12.434 -0.101,-9.443 -8.567,-12.526 -17.96,-12.565 z m 8.042,17.511 c -6.187,0.487 -10.674,0.436 -15.838,-0.225 -1.167,-0.017 -2.233,-0.67 -2.774,-1.704 -0.547,-1.032 -0.487,-2.282 0.156,-3.256 0.858,-1.297 2.065,-2.568 3.836,-4.115 8.771,-0.813 15.044,-1.003 23.409,-0.268 -0.85,4.473 -3.057,6.581 -8.789,9.568 z"
                   fill="url(#SvgjsRadialGradient3613)"
                   opacity="1"
                   style="fill:url(#SvgjsRadialGradient3613);stroke-width:1.05597" />
                <path
                   id="SvgjsPath3617"
                   d="m 115.147,90.766 c -1.167,-0.017 -2.233,-0.67 -2.774,-1.704 -0.547,-1.032 -0.487,-2.282 0.156,-3.256 0.858,-1.297 2.065,-2.568 3.836,-4.115 8.771,-0.813 15.044,-1.003 23.409,-0.268 -0.851,4.473 -3.058,6.582 -8.789,9.568 -6.186,0.487 -10.673,0.436 -15.838,-0.225 z"
                   fill="url(#SvgjsRadialGradient3618)"
                   opacity="1"
                   style="fill:url(#SvgjsRadialGradient3618);stroke-width:1.05597" />
                <path
                   id="SvgjsPath3621"
                   d="m 114.168,79 c 0.27,-0.249 3.77,-0.621 6.501,-1.104 2.73,-0.483 20.217,-0.348 20.217,-0.348 0,0 -17.112,-0.811 -20.164,-0.203 -3.057,0.607 -6.554,1.655 -6.554,1.655 z"
                   fill="#c27b55"
                   stroke-width="1.05597"
                   opacity="1" />
                <path
                   id="SvgjsPath3622"
                   d="m 110.766,89.633 c 2.075,-3.454 2.899,-5.102 6.004,-7.55 6.037,-1.096 13.04,-0.92 22.203,-0.565 -0.707,3.869 -2.669,6.058 -8.608,9.126 -6.664,0.519 -12.018,0.495 -18.261,0 6.553,0.977 11.234,1.358 19.3,0.982 5.771,-2.108 9.077,-5.883 11.467,-10.455 l 1.829,-0.88 c -12.077,-1.006 -21.95,-0.979 -30.924,-0.044 l -4.076,3.871 3.784,-1.56 c -1.424,2.867 -2.233,4.831 -2.718,7.075 z"
                   fill="#000000"
                   stroke-width="1.05597"
                   opacity="1" />
              </g>
            </g>
          </g>
          <g
             id="svga-group-facehighlight-single"
             style="stroke-width:1.05597">
            <path
               id="SvgjsPath2906"
               d="m 141,113.974 c 0.035,22.622 -18.292,40.994 -40.938,41.025 -22.642,0.037 -41.028,-18.273 -41.063,-40.9 -0.035,-22.62 18.292,-41.064 40.937,-41.1 22.643,-0.035 41.031,18.35 41.064,40.975 z"
               fill="url(#SvgjsRadialGradient2907)"
               opacity="1"
               style="fill:url(#SvgjsRadialGradient2907);stroke-width:1.05597" />
            <path
               id="SvgjsPath2910"
               d="m 137.5,53.999 c 0,20.711 -16.789,37.5 -37.499,37.5 -20.711,0 -37.501,-16.789 -37.501,-37.5 0,-20.711 16.79,-37.5 37.501,-37.5 20.71,0 37.499,16.789 37.499,37.5 z"
               fill="url(#SvgjsRadialGradient2911)"
               opacity="1"
               style="fill:url(#SvgjsRadialGradient2911);stroke-width:1.05597" />
          </g>
          <g
             id="svga-group-eyebrows-left-move"
             style="stroke-width:1.05597">
            <g
               id="svga-group-eyebrows-left-rotate"
               style="stroke-width:1.05597">
              <g
                 id="svga-group-eyebrows-left"
                 style="stroke-width:1.05597">
                <path
                   id="SvgjsPath3623"
                   d="m 54,74.189 c 9.954,-9.974 16.761,-5.915 30.589,-3.264 0.845,0.162 6.32,1.539 5.31,3.469 -0.483,0.924 -2.036,0.814 -2.903,0.798 C 73.308,74.936 66.652,65.197 54,74.189 Z"
                   fill="#a46c47"
                   stroke-width="1.05597"
                   opacity="1"
                   stroke="none" />
              </g>
            </g>
          </g>
          <g
             id="svga-group-eyebrows-right-move"
             style="stroke-width:1.05597">
            <g
               id="svga-group-eyebrows-right-rotate"
               style="stroke-width:1.05597">
              <g
                 id="svga-group-eyebrows-right"
                 style="stroke-width:1.05597">
                <path
                   id="SvgjsPath3624"
                   d="m 146,74.189 c -9.953,-9.974 -16.761,-5.915 -30.589,-3.264 -0.846,0.162 -6.32,1.539 -5.311,3.469 0.483,0.924 2.036,0.814 2.903,0.798 13.688,-0.256 20.345,-9.995 32.997,-1.003 z"
                   fill="#a46c47"
                   stroke-width="1.05597"
                   opacity="1"
                   stroke="none" />
              </g>
            </g>
          </g>
          <g
             id="svga-group-nose-single-move"
             style="stroke-width:1.05597">
            <g
               id="svga-group-nose-single"
               style="stroke-width:1.05597">
              <path
                 id="SvgjsPath3044"
                 d="m 91.115,115.499 c -0.878,2.064 5.934,4.292 8.519,4.429 2.8,0.147 10.646,-2.9 9.316,-4.992 -1.399,-2.195 -6.643,-0.286 -8.906,-0.286 -2.252,-0.001 -7.753,-1.905 -8.929,0.849 z"
                 fill="#e1ac8f"
                 stroke-width="1.05597"
                 opacity="1"
                 stroke="none" />
              <path
                 id="SvgjsPath3045"
                 d="m 101.857,117.058 c -0.23,-0.759 1.876,-1.584 2.657,-1.694 1.101,-0.16 3.36,0.802 3.158,1.592 -0.184,0.698 -2.148,-0.533 -2.86,-0.429 -0.734,0.107 -2.737,1.242 -2.955,0.531 z m -6.883,-0.247 c 0.968,0 2.404,0.623 2.668,0.074 0.315,-0.655 -2.139,-1.461 -2.86,-1.372 -0.596,0.07 -2.733,1.315 -2.439,1.839 0.274,0.481 1.355,-0.541 2.631,-0.541 z"
                 fill="#c27b55"
                 stroke-width="1.05597"
                 opacity="1"
                 stroke="none" />
              <path
                 id="SvgjsPath3046"
                 d="m 100.089,111.999 c 0.607,0 1.742,-0.74 1.792,-2.23 0.201,-6.008 -0.956,-23.833 -1.792,-23.77 -0.78,0.059 -2.267,17.637 -1.948,23.77 0.079,1.502 1.263,2.23 1.948,2.23 z"
                 fill="#fff5ef"
                 stroke-width="1.05597"
                 opacity="0.2"
                 stroke="none" />
            </g>
          </g>
          <g
             id="svga-group-beardwrap"
             style="stroke-width:1.05597">
            <g
               id="svga-group-beard-single-move"
               style="stroke-width:1.05597">
              <g
                 id="svga-group-beard-single"
                 style="stroke-width:1.05597">
                <path
                   id="SvgjsPath3042"
                   d="M 100,18.13 Z"
                   fill="#2a232b"
                   stroke-width="1.05597"
                   opacity="1" />
              </g>
            </g>
          </g>
          <g
             id="svga-group-mustache-single-move"
             style="stroke-width:1.05597">
            <g
               id="svga-group-mustache-single"
               style="stroke-width:1.05597">
              <path
                 id="SvgjsPath3040"
                 d="M 100,18.13 Z"
                 fill="#2a232b"
                 stroke-width="1.05597"
                 opacity="1" />
            </g>
          </g>
          <g
             id="svga-group-hair-front"
             style="stroke-width:1.05597">
            <path
               id="SvgjsPath3562"
               d="M 162.973,40.273 C 147.94,-14.754 61.012,-21.557 36.378,40.045 c -11.02,27.558 15.94,73.711 15.94,73.711 -0.962,-6.957 -4.86,-37.856 -4.86,-37.856 0,-2 1.915,-4.507 2.272,-5.973 1.718,-7.055 -4.882,-16.666 -2.272,-28.859 2.222,-10.38 5.558,-17.637 15.408,-23.673 13.231,-8.108 20.458,5.525 26.34,9.323 4.617,2.98 17.091,3.121 21.972,0.597 6.122,-3.166 14.95,-14.205 24.761,-11.017 11.622,3.776 16.601,19.828 17.03,22.789 0.916,8.798 -4.469,26.247 -2.699,30.84 0.504,1.309 1.617,3.689 1.898,4.807 1.16,4.612 -4.088,39.009 -4.088,39.009 0,0 22.388,-46.035 14.893,-73.47 z"
               fill="#decfbc"
               stroke-width="1.05597"
               opacity="1" />
            <path
               id="SvgjsPath3563"
               d="M 137.697,13.5 C 127.979,8.857 119,17 110,23 96.227,30.069 89,18 78,13 69,8 57,16 50,25 39.76,40.824 42.995,53.784 46.771,70.535 c -3.841,3.196 2.723,27.464 5.036,39.4 C 50.406,99.271 47.458,75.9 47.458,75.9 c 0,-0.415 0.096,-0.854 0.229,-1.299 0.511,-1.699 1.76,-3.512 2.042,-4.674 1.718,-7.055 -4.882,-16.666 -2.272,-28.859 2.222,-10.38 5.558,-17.637 15.408,-23.673 13.231,-8.108 20.458,5.525 26.34,9.323 4.617,2.98 17.091,3.121 21.972,0.597 6.122,-3.166 14.95,-14.205 24.761,-11.017 11.622,3.776 16.601,19.828 17.03,22.789 0.916,8.798 -4.469,26.247 -2.699,30.84 0.504,1.309 1.617,3.689 1.898,4.807 0.037,0.146 0.066,0.323 0.091,0.527 10e-4,-0.016 0.003,-0.032 0.005,-0.047 0.54,4.834 -2.166,24.674 -3.489,33.824 3.99,-18.04 8.449,-34.593 4.355,-41.351 3.74,-22.285 8.438,-42.785 -15.432,-54.187 z"
               fill="#cfb89a"
               stroke-width="1.05597"
               opacity="1" />
            <path
               id="SvgjsPath3564"
               d="M 148.08,113.744 C 156.739,92.184 165.891,65.427 161.262,41.236 159.905,36.428 157.795,28.658 148.928,18.773 115.737,-18.332 59.483,-6.218 39.958,35.8 28.541,60.204 39.744,90.046 52.317,113.757 41.275,94.464 35.624,80.813 33.567,59.656 32.945,52.577 34.285,43.164 38.066,34.788 53.26,1.225 92.456,-14.792 125.415,-1.075 c 13.259,5.328 27.885,17.106 35.03,32.893 4.882,10.828 4.249,20.507 3.181,32.421 -0.771,6.491 -3.043,16.094 -3.617,17.865 -2.544,8.367 -0.627,2.872 -4.759,14.623 -2.986,7.768 -4.608,11.26 -7.17,17.017 z"
               fill="#b08d60"
               stroke-width="1.05597"
               opacity="1" />
          </g>
          <g
             id="svga-group-glasses-single-move"
             style="stroke-width:1.05597">
            <g
               id="svga-group-glasses-single"
               style="stroke-width:1.05597">
              <path
                 id="SvgjsPath3691"
                 d="m 148.02,85.54 c -0.11,1.96 -0.35,4.05 -0.59,6.25 -1.04,9.74 -5.26,12.49 -24.57,11.1 -6.3,-0.45 -11.06,-4.04 -13.41,-10.1 -0.99,-2.55 -1.87,-5.52 -2.37,-8.48 9.62,-6.5 32.32,-6.69 40.94,1.23 z m -96.04,0 c 0.11,1.96 0.35,4.05 0.59,6.25 1.04,9.74 5.26,12.49 24.57,11.1 6.3,-0.45 11.06,-4.04 13.41,-10.1 0.99,-2.55 1.87,-5.52 2.37,-8.48 -9.62,-6.5 -32.32,-6.69 -40.94,1.23 z"
                 fill="#ffffff"
                 stroke-width="1.05597"
                 opacity="0.2" />
              <path
                 id="SvgjsPath3692"
                 d="m 148.02,85.54 c -8.62,-7.92 -31.33,-7.73 -40.93,-1.23 -0.36,-2.11 -0.52,-4.22 -0.36,-6.16 v 0 c 0.66,-7.81 13.45,-6.88 20.98,-7.17 18.62,-0.72 20.85,5.36 20.31,14.56 z m -54.75,-7.4 v 0 C 92.61,70.33 79.82,71.26 72.28,70.97 53.67,70.26 51.43,76.34 51.97,85.53 60.59,77.61 83.3,77.8 92.9,84.3 c 0.36,-2.11 0.53,-4.21 0.37,-6.16 z"
                 fill="#ffffff"
                 stroke-width="1.05597"
                 opacity="0.4" />
              <path
                 id="SvgjsPath3693"
                 d="m 149.91,75.08 c -0.62,-1.42 -1.48,-2.7 -2.56,-3.65 -2.47,-2.16 -7.08,-2.46 -11.39,-2.71 -4.19,-0.23 -12.15,-0.42 -17.46,-0.08 -13.8,0.9 -13.57,7 -13.57,7 -1.81,0 -8.03,0 -9.84,0 0,0 0.23,-6.11 -13.57,-7 -5.32,-0.34 -13.27,-0.16 -17.46,0.08 -4.31,0.24 -8.93,0.55 -11.39,2.71 -1.09,0.95 -1.94,2.22 -2.56,3.65 L 41.92,73.5 v 3.99 c 7.17,1.38 9.02,1.82 10.02,1.76 -0.25,3.01 -0.36,8.35 0.29,12.59 1.54,10.07 5.78,12.78 24.94,11.4 6.36,-0.46 11.35,-4.23 13.72,-10.33 1.86,-4.8 3.14,-9.09 2.81,-14.28 h 12.64 c -0.33,5.19 0.95,9.49 2.81,14.28 2.36,6.1 7.36,9.87 13.72,10.33 19.17,1.38 23.41,-1.33 24.94,-11.4 0.65,-4.24 0.54,-9.58 0.29,-12.59 1,0.06 2.85,-0.38 10.02,-1.76 V 73.5 Z M 90.07,92.61 c -2.27,5.87 -6.88,9.35 -12.98,9.78 C 58.01,103.76 54.48,101.06 53.05,91.71 52.29,86.7 52.7,80.19 52.8,79.19 c 0.19,-0.03 0.31,-0.06 0.32,-0.1 1.09,-6.36 6.45,-8.42 29.02,-7.35 3.73,0.18 6.92,0.88 8.69,2.75 1.04,1.09 2.04,2.66 1.95,4.17 h 0.04 c 0.2,2.54 -0.38,7.84 -2.75,13.95 z m 56.87,-0.89 c -1.43,9.35 -4.96,12.05 -24.04,10.68 -6.1,-0.44 -10.71,-3.92 -12.98,-9.78 -2.37,-6.11 -2.94,-11.41 -2.74,-13.95 h 0.04 c -0.09,-1.5 0.91,-3.07 1.95,-4.17 1.77,-1.87 4.96,-2.57 8.69,-2.75 22.57,-1.06 27.92,0.99 29.02,7.35 0.01,0.04 0.13,0.08 0.32,0.1 0.09,1 0.51,7.51 -0.26,12.52 z"
                 fill="#4d1f1f"
                 stroke-width="1.05597"
                 opacity="1"
                 stroke="none" />
              <path
                 id="SvgjsPath3694"
                 d="m 104.94,75.34 c 0.17,-1.26 1.63,-5.92 13.54,-6.69 5.32,-0.34 13.27,-0.16 17.46,0.08 4.31,0.24 8.93,0.55 11.39,2.71 1.09,0.95 1.94,2.22 2.56,3.65 v 0 c -3.72,-6.16 -10.22,-5.54 -14.01,-5.75 -2.3,-0.13 -6.21,-0.27 -10.28,-0.27 -2.77,0 -5.15,0.06 -7.06,0.19 -7.06,0.45 -10.98,1.66 -13.6,6.08 z m -9.88,0 C 94.89,74.08 93.43,69.42 81.52,68.65 76.2,68.31 68.25,68.49 64.06,68.73 c -4.31,0.24 -8.93,0.55 -11.39,2.71 -1.09,0.95 -1.94,2.22 -2.56,3.65 v 0 c 3.72,-6.16 10.22,-5.54 14.01,-5.75 2.3,-0.13 6.21,-0.27 10.28,-0.27 2.77,0 5.15,0.06 7.06,0.19 7.06,0.45 10.98,1.66 13.6,6.08 z"
                 fill="#5c2e2e"
                 stroke-width="1.05597"
                 opacity="1"
                 stroke="none" />
            </g>
          </g>
        </g>
      </g>
    </g>
    <rect
       id="SvgjsRect1057"
       width="200"
       height="15"
       x="0"
       y="185"
       fill="#ecf0f1"
       opacity="0.5"
       style="display:none;stroke-width:1.11507" />
    <text
       id="SvgjsText1058"
       font-family="Roboto, Helvetica, Arial, sans-serif"
       font-size="10px"
       text-anchor="start"
       font-weight="400"
       anchor="start"
       fill="#333333"
       x="38.732864"
       y="182.5865"
       style="display:none;stroke-width:1.11507"><tspan
         id="SvgjsTspan1059"
         dy="13"
         x="38.732864"
         style="stroke-width:1.05597">Created on svgAvatars.com</tspan></text>
  </g>
</svg>
