<?xml version="1.0" encoding="UTF-8" standalone="no"?>
<svg
   version="1.1"
   width="600px"
   height="600px"
   viewBox="0 0 200 200"
   style="overflow:hidden!important;"
   id="svg271"
   sodipodi:docname="avatar.svg"
   inkscape:version="1.1.2 (0a00cf5339, 2022-02-04)"
   xmlns:inkscape="http://www.inkscape.org/namespaces/inkscape"
   xmlns:sodipodi="http://sodipodi.sourceforge.net/DTD/sodipodi-0.dtd"
   xmlns="http://www.w3.org/2000/svg"
   xmlns:svg="http://www.w3.org/2000/svg">
  <sodipodi:namedview
     id="namedview273"
     pagecolor="#ffffff"
     bordercolor="#666666"
     borderopacity="1.0"
     inkscape:pageshadow="2"
     inkscape:pageopacity="0.0"
     inkscape:pagecheckerboard="0"
     showgrid="false"
     inkscape:zoom="1.5516667"
     inkscape:cx="300.32223"
     inkscape:cy="299.99999"
     inkscape:window-width="1613"
     inkscape:window-height="1082"
     inkscape:window-x="58"
     inkscape:window-y="0"
     inkscape:window-maximized="0"
     inkscape:current-layer="svg271" />
  <rect
     style="fill:#ffffff;fill-rule:evenodd;stroke-width:0.333333"
     id="rect183"
     width="200"
     height="200"
     x="0"
     y="0" />
  <g
     id="svga-group-wrapper"
     transform="matrix(1.0558064,0,0,1.0558064,-5.6301611,-34.069272)">
    <g
       id="svga-group-backs-single" />
    <g
       id="svga-group-humanwrap-move">
      <g
         id="svga-group-humanwrap">
        <g
           id="svga-group-hair-back-move">
          <g
             id="svga-group-hair-back" />
        </g>
        <g
           id="svga-group-humanbody-back">
          <path
             id="SvgjsPath5665"
             d="m 166.5,181.1 c -10.9,-6.6 -27.6,-8.4 -35,-12.1 -4.9,-2.5 -9.1,-4.7 -8.9,-17.8 0.2,-13.1 1.9,-42.4 1.9,-42.4 H 75.4 c 0,0 1.6,29.4 1.9,42.4 0.3,13 -4.2,15.6 -8.9,17.8 -7.4,3.5 -24.1,5.4 -35,12.1 -10.8,6.6 -10,18.9 -10,18.9 v 19.7 H 176.7 V 200 c -0.1,0 0.7,-12.3 -10.2,-18.9 z"
             fill="#f0c7b1"
             stroke-width="none"
             opacity="1" />
        </g>
        <g
           id="svga-group-chinshadow-single">
          <path
             id="SvgjsPath5661"
             d="m 75.7,162.4 c 5.4,3.4 13.9,4.6 24.3,4.6 10.4,0.1 18.9,-1.1 24.3,-4.5 -1.1,-2.5 -1.8,-6 -1.7,-11.3 0.2,-13.1 1.9,-42.4 1.9,-42.4 H 75.4 c 0,0 1.6,29.4 1.9,42.4 0.1,5.2 -0.5,8.7 -1.6,11.2 z"
             fill="#d19271"
             stroke-width="none"
             opacity="0.65" />
        </g>
        <g
           id="svga-group-humanbody-front">
          <path
             id="SvgjsPath5666"
             d="m 78.7,156.8 c 0.5,4.8 1.7,9.4 3.1,13.9 0.8,2.3 1.6,4.6 2.6,6.9 0.8,2 1.7,4.2 3.1,5.9 0.3,0.4 1,0 0.9,-0.5 -0.5,-2.2 -1.6,-4.3 -2.4,-6.4 -0.9,-2.2 -1.7,-4.4 -2.5,-6.6 -1.5,-4.4 -2.8,-8.9 -4.1,-13.3 -0.2,-0.4 -0.8,-0.3 -0.7,0.1 z m 41.3,-1 c -1.3,8.2 -3.9,16.1 -5.4,24.2 -0.1,0.4 0.4,0.5 0.6,0.2 3.1,-7.7 4.1,-16.1 5.1,-24.3 -0.1,-0.2 -0.3,-0.2 -0.3,-0.1 z m -25.8,11.9 c -0.9,3.6 1.9,8.6 6.2,7.6 0.5,-0.1 0.4,-0.8 0,-1 -1.4,-0.5 -2.9,-0.9 -3.9,-2.1 -1.1,-1.2 -1.5,-2.9 -1.4,-4.5 0,-0.4 -0.8,-0.5 -0.9,0 z"
             fill="#d19271"
             stroke-width="none"
             opacity="1" />
          <path
             id="SvgjsPath5667"
             d="M 177.3,219.7 C 177.2,213.1 177,206.6 177,200 l -0.3,-0.3 c 0.1,0 0.1,0 0.2,0.1 0.1,0.1 0.1,0.2 0.1,0.1 v -1.4 c 0,-0.5 -0.1,-0.9 -0.1,-1.4 -0.1,-0.9 -0.3,-1.9 -0.5,-2.8 -0.5,-1.8 -1.1,-3.6 -2,-5.3 -1.7,-3.4 -4.4,-6.2 -7.7,-8.1 -3.6,-2.2 -7.6,-3.8 -11.6,-5.1 -4,-1.3 -8.1,-2.4 -12.1,-3.5 -4,-1.2 -8.1,-2.2 -11.8,-4.2 -1.9,-1 -3.6,-2.1 -4.8,-3.6 -1.2,-1.6 -1.9,-3.5 -2.3,-5.5 -0.8,-4 -0.4,-8.2 -0.3,-12.4 l 0.7,-12.6 1.5,-25.2 0.1,-1.4 h -1.4 c -8.2,0 -16.4,0 -24.6,0.1 l -24.6,0.3 h -0.9 l 0.1,0.9 c 0.8,11.9 1.6,23.8 2.1,35.7 0.1,3 0.3,6 0.2,8.9 -0.1,2.9 -0.4,5.9 -1.6,8.6 -0.6,1.3 -1.4,2.5 -2.4,3.5 -1,1 -2.3,1.8 -3.6,2.4 -2.6,1.3 -5.4,2.2 -8.3,3 -5.8,1.5 -11.6,2.8 -17.3,4.7 -2.8,0.9 -5.7,2 -8.4,3.4 -1.3,0.7 -2.7,1.4 -4,2.4 -1.3,0.9 -2.4,1.9 -3.5,3.1 -2.1,2.3 -3.6,5.2 -4.5,8.1 -0.5,1.5 -0.8,3 -1,4.6 -0.1,0.8 -0.1,1.6 -0.1,2.4 v 2.3 l -0.2,17.9 v 1.3 h 1.4 l 38.3,0.2 c 12.8,0.1 25.5,0.1 38.3,0 12.8,-0.1 25.6,-0.1 38.3,-0.3 12.8,-0.2 25.6,-0.5 38.3,-0.7 h 0.6 z m -77.2,-1.6 H 61.8 l -37,0.2 -0.1,-16.6 v -2.2 c 0,-0.7 0,-1.4 0.1,-2.1 0.1,-1.4 0.4,-2.8 0.8,-4.2 0.8,-2.7 2.1,-5.3 3.9,-7.5 0.9,-1.1 2,-2.1 3.1,-2.9 1.1,-0.9 2.4,-1.6 3.7,-2.3 2.6,-1.4 5.3,-2.5 8.1,-3.5 5.6,-2 11.4,-3.4 17.1,-5.1 2.9,-0.8 5.8,-1.7 8.5,-3.1 1.3,-0.7 2.7,-1.5 3.8,-2.6 1.1,-1.1 2,-2.4 2.6,-3.9 1.2,-2.9 1.5,-5.9 1.6,-8.9 0,-3 -0.1,-6 -0.2,-9 L 76.5,109.6 100,110 c 7.7,0.1 15.4,0.1 23.1,0.1 -0.4,7.9 -0.8,15.9 -1.1,23.8 -0.2,4.2 -0.2,8.4 -0.3,12.6 0,4.2 -0.2,8.5 0.8,12.8 0.5,2.1 1.3,4.2 2.8,6 1.4,1.7 3.4,2.9 5.3,3.8 3.9,1.9 8,2.8 12.1,3.8 4.1,1 8.2,2 12.2,3.3 4,1.3 7.9,2.8 11.5,5 3.2,1.9 5.8,4.7 7.5,8 0.9,1.6 1.5,3.4 1.9,5.2 0.2,0.9 0.4,1.8 0.4,2.7 0.1,0.5 0.1,0.9 0.1,1.4 v 1.5 l -0.3,19 c -12.6,-0.2 -25.1,-0.5 -37.7,-0.7 -12.7,-0.1 -25.5,-0.1 -38.2,-0.2 z"
             fill="#c27b55"
             stroke-width="none"
             opacity="1" />
        </g>
        <g
           id="svga-group-clothes-single">
          <path
             id="SvgjsPath5555"
             d="m 179.3,220.1 c 0,-17.5 -1.6,-26.7 -1.6,-26.7 -3,-14 -21.9,-18.2 -30.7,-20.1 -15.2,-3 -20.1,-7.2 -20.1,-7.2 0,0 -6.4,16 -27.5,16 -21.1,0 -26.8,-16.6 -26.8,-16.6 0,0 -5.3,4.1 -21.2,7.1 -8.7,1.9 -26.3,6.9 -29.3,20.9 0,0 -1.6,9.2 -1.6,26.7 h 158.8 z"
             fill="#386e77"
             stroke-width="none"
             opacity="1" />
          <path
             id="SvgjsPath5556"
             d="m 179.6,209.2 c -0.1,-3.6 -0.2,-7.3 -0.5,-10.9 l -0.3,-2.7 c -0.1,-0.9 -0.2,-1.8 -0.4,-2.8 -0.4,-1.9 -1.1,-3.6 -2.1,-5.3 -1.9,-3.3 -4.9,-5.9 -8,-7.9 -3.2,-2 -6.6,-3.5 -10.1,-4.7 -3.5,-1.2 -7.1,-2.1 -10.6,-2.9 -3.5,-0.7 -7,-1.6 -10.4,-2.7 -1.7,-0.6 -3.3,-1.2 -4.9,-1.9 -0.8,-0.4 -1.6,-0.7 -2.4,-1.1 -0.4,-0.2 -0.8,-0.4 -1.1,-0.6 -0.3,-0.2 -0.7,-0.5 -1,-0.6 -0.1,-0.1 -0.2,-0.1 -0.3,-0.2 -0.7,-0.3 -1.5,0 -1.8,0.7 -0.5,1.1 -1.2,2.3 -1.9,3.4 -0.8,1.1 -1.6,2.1 -2.5,3.1 -1.8,1.9 -3.9,3.6 -6.2,5 -4.6,2.7 -10.1,4 -15.5,4.1 -5.4,0.1 -11,-1 -15.7,-3.8 -4.7,-2.8 -8.6,-7.1 -10.7,-12.1 0,0 0,-0.1 -0.1,-0.1 -0.2,-0.2 -0.5,-0.3 -0.7,-0.1 -1.4,1 -3.1,1.8 -4.7,2.4 -1.7,0.7 -3.4,1.3 -5.1,1.8 -3.5,1.1 -7,1.9 -10.5,2.6 -7.1,1.5 -14.3,3.5 -20.6,7.6 -3.1,2 -6,4.6 -7.9,7.9 -1,1.6 -1.7,3.4 -2.2,5.3 -0.1,0.2 -0.1,0.5 -0.2,0.7 l -0.1,0.7 -0.2,1.4 -0.3,2.7 c -0.8,7.3 -1.1,14.6 -1.2,21.9 0,0.7 0.6,1.4 1.3,1.4 l 40,0.2 c 13.3,0 26.7,-0.1 39.9,-0.2 l 39.8,-0.3 36.9,-0.6 2.2,-0.4 c 0.1,-3.8 0.1,-7.3 0.1,-11 z m -20.5,10.4 -20,-0.3 -39.7,-0.5 C 86.2,218.7 73.1,218.6 60,218.6 l -38,0.2 c 0,-6.8 0.1,-13.6 0.7,-20.3 l 0.3,-2.7 0.1,-1.3 0.1,-0.7 c 0,-0.2 0.1,-0.4 0.1,-0.6 0.4,-1.6 1,-3.3 1.8,-4.8 1.7,-3 4.2,-5.6 7.1,-7.6 2.9,-2 6.2,-3.6 9.5,-4.9 3.3,-1.3 6.8,-2.3 10.4,-3 3.6,-0.7 7.1,-1.6 10.6,-2.7 1.7,-0.6 3.5,-1.2 5.2,-1.9 1.5,-0.6 3,-1.3 4.5,-2.2 1.1,2.5 2.5,4.7 4.2,6.8 1.8,2.2 4,4.1 6.5,5.6 4.9,3.1 10.7,4.4 16.4,4.5 5.7,0.1 11.6,-1 16.7,-3.8 2.6,-1.4 4.9,-3.2 6.9,-5.3 1.7,-1.8 3.1,-3.6 4.3,-5.8 0.4,0.2 0.8,0.5 1.2,0.7 0.8,0.4 1.7,0.9 2.5,1.2 1.7,0.8 3.4,1.4 5.2,2 3.5,1.1 7.1,2 10.7,2.7 7,1.4 14,3.3 20.1,6.9 3,1.8 5.7,4.1 7.6,7 0.9,1.4 1.6,3.1 2.1,4.7 0.2,0.8 0.3,1.7 0.4,2.6 l 0.3,2.7 c 0.4,3.6 0.8,7.2 1,10.8 0.2,3.6 0.4,7.3 0.6,10.8 z M 38.3,188.5 c 1.4,3.2 2.4,6.5 3.2,9.9 0.4,1.7 0.8,3.4 1.1,5.1 0.3,1.7 0.6,3.4 0.9,5.2 0.5,3.2 1,6.4 1.4,9.6 h 0.2 c 0.2,-3.2 0.2,-6.5 0,-9.8 -0.3,-3.5 -0.8,-7.1 -1.6,-10.6 -0.4,-1.7 -0.9,-3.5 -1.5,-5.2 -0.6,-1.7 -1.3,-3.4 -2.2,-4.9 -0.8,-1.6 -1.8,-3.1 -3,-4.5 -1,-1.1 -2,-2.2 -3.2,-3.1 -0.1,0 -0.1,0.1 -0.2,0.1 1,1.1 1.8,2.3 2.6,3.5 0.8,1.5 1.6,3.1 2.3,4.7 z m 118.3,20.1 c 0.3,-1.7 0.6,-3.5 0.9,-5.2 0.3,-1.7 0.6,-3.4 1.1,-5.1 0.8,-3.4 1.8,-6.7 3.2,-9.9 0.7,-1.6 1.5,-3.1 2.4,-4.6 0.7,-1.1 1.5,-2.3 2.4,-3.3 -0.1,-0.1 -0.2,-0.1 -0.2,-0.2 -1.1,0.8 -2.1,1.8 -3,2.9 -1.1,1.4 -2.1,2.9 -3,4.5 -0.9,1.6 -1.6,3.2 -2.2,4.9 -0.6,1.7 -1.1,3.4 -1.5,5.2 -0.8,3.5 -1.3,7 -1.6,10.6 -0.2,3.5 -0.3,7.1 0,10.6 0.5,-3.5 1,-6.9 1.5,-10.4 z M 116,183.8 c -5.2,2.9 -11.3,3.9 -17.3,3.5 -1.5,-0.1 -3,-0.2 -4.5,-0.4 -1.5,-0.2 -2.9,-0.5 -4.4,-0.9 -1.4,-0.4 -2.8,-0.9 -4.2,-1.5 -1.3,-0.6 -2.7,-1.3 -3.9,-2.1 -2.5,-1.6 -4.8,-3.6 -6.7,-5.8 -2,-2.2 -3.7,-4.7 -5,-7.3 2,5.6 5.8,10.7 10.9,14.3 2.5,1.8 5.4,3.2 8.4,4.1 1.5,0.4 3.1,0.8 4.6,1 1.6,0.2 3.1,0.4 4.7,0.4 3.1,0.1 6.3,0 9.4,-0.7 3.1,-0.7 6.1,-1.8 8.8,-3.4 2.7,-1.6 5.1,-3.6 7.2,-5.8 2.1,-2.2 4,-4.6 5.6,-7.1 -4,4.5 -8.3,8.8 -13.6,11.7 z"
             fill="#184f58"
             stroke-width="none"
             opacity="1" />
        </g>
        <g
           id="svga-group-head">
          <g
             id="svga-group-ears-left-move">
            <g
               id="svga-group-ears-left">
              <path
                 id="SvgjsPath5565"
                 d="m 62,92.9 c -0.2,-0.3 -3.3,-4.3 -5.9,-6.7 -2.6,-2.4 -3.4,-2.4 -4.6,-0.9 -1.3,1.5 -2.9,9.1 -2.5,12.4 0.4,3.4 3.6,8.7 5.2,11.7 1.7,3 3.3,6.7 5.1,6.3 1.9,-0.4 4.4,-4.6 5.7,-7.7 1.3,-3.1 0.5,-10.8 -3,-15.1 z"
                 fill="#f0c7b1"
                 stroke-width="none"
                 opacity="1" />
              <path
                 id="SvgjsPath5566"
                 d="m 65.8,102 c 0.1,0.9 0.2,1.7 0.2,2.6 0,0.9 0,1.7 -0.2,2.6 -0.1,0.4 -0.2,0.9 -0.3,1.3 -0.1,0.4 -0.3,0.7 -0.4,1.1 -0.3,0.7 -0.6,1.4 -1,2.1 -0.7,1.3 -1.5,2.6 -2.6,3.6 -0.5,0.5 -1.1,1 -1.8,1.3 -0.4,0.1 -0.9,0.1 -1.3,0 -0.4,-0.2 -0.8,-0.5 -1.1,-0.8 -1.2,-1.3 -1.9,-2.8 -2.7,-4.3 -0.7,-1.5 -1.5,-2.9 -2.2,-4.3 -0.7,-1.5 -1.5,-2.9 -2.1,-4.4 -0.3,-0.8 -0.7,-1.5 -0.9,-2.3 -0.3,-0.8 -0.5,-1.6 -0.6,-2.5 -0.2,-1.7 0,-3.4 0.1,-5 0.2,-1.6 0.5,-3.2 0.8,-4.8 0.2,-0.8 0.4,-1.6 0.8,-2.3 l 0.3,-0.6 c 0.1,-0.2 0.3,-0.4 0.4,-0.5 0.2,-0.3 0.5,-0.6 0.9,-0.8 0.3,-0.2 0.8,-0.3 1.2,-0.3 0.4,0.1 0.8,0.3 1.1,0.5 0.7,0.4 1.2,1 1.8,1.5 2.2,2.2 4,4.8 5.9,7.2 1.9,2.4 3.2,5.7 3.7,9.1 z M 55.7,86.4 c -1.1,-0.9 -2.4,-1.9 -3.1,-1.2 -0.2,0.1 -0.4,0.4 -0.6,0.6 l -0.3,0.3 c -0.1,0.1 -0.1,0.3 -0.2,0.4 -0.3,0.6 -0.5,1.3 -0.8,2 -0.5,1.4 -0.9,2.9 -1.1,4.5 -0.3,1.5 -0.5,3.1 -0.4,4.7 0.1,0.8 0.3,1.6 0.6,2.3 0.3,0.8 0.6,1.5 0.9,2.2 0.7,1.5 1.5,2.8 2.3,4.2 0.8,1.4 1.7,2.7 2.5,4.1 0.4,0.7 0.8,1.4 1.2,2 0.4,0.6 0.8,1.3 1.3,1.7 0.5,0.4 0.9,0.6 1.3,0.4 0.5,-0.2 0.9,-0.6 1.4,-1.1 0.9,-1 1.6,-2.1 2.3,-3.4 0.4,-0.6 0.7,-1.3 1,-1.9 0.2,-0.3 0.3,-0.7 0.4,-1 l 0.2,-0.5 c 0,-0.2 0.1,-0.3 0.1,-0.5 0.3,-1.4 0.4,-3 0.3,-4.6 -0.1,-1.6 -0.4,-3.2 -0.9,-4.8 -0.5,-1.6 -1.2,-3 -2.2,-4.2 -1.9,-2.1 -4,-4.3 -6.2,-6.2 z"
                 fill="#e1ac8f"
                 stroke-width="none"
                 opacity="1" />
              <path
                 id="SvgjsPath5567"
                 d="m 51.2,99.4 c -0.3,-2.3 -0.5,-7.8 0.8,-9.6 2.2,-2.9 6,6.4 6.9,9.3 0,0.1 0.1,0.2 0.1,0.3 0.2,0.3 -0.1,0.7 -0.4,0.6 -0.4,-0.2 -0.9,-0.6 -1.3,-0.8 -1.1,-0.5 -1.6,0.5 -1.3,1.8 0.4,1.8 1.4,2.9 2.2,4.3 0.1,0.2 0,0.4 -0.2,0.3 -1.6,-0.9 -3.5,-4.5 -3.1,-6.6 0.3,-2 1.9,-1.8 3.1,-0.8 -0.7,-1.7 -1.5,-3.3 -2.5,-4.8 -0.6,-0.9 -1.2,-2 -2.2,-2.2 -1.2,-0.2 -1,0.3 -1.2,1.8 -0.8,4.8 -0.3,10.4 2.5,14.5 0.1,0.1 0,0.2 -0.1,0.1 -1.8,-2.3 -3,-4.9 -3.3,-8.2 z"
                 fill="#d19271"
                 stroke-width="none"
                 opacity="1" />
            </g>
          </g>
          <g
             id="svga-group-ears-right-move">
            <g
               id="svga-group-ears-right">
              <path
                 id="SvgjsPath5568"
                 d="m 138,92.9 c 0.2,-0.3 3.3,-4.3 5.9,-6.7 2.6,-2.4 3.4,-2.4 4.6,-0.9 1.3,1.5 2.9,9.1 2.5,12.4 -0.4,3.3 -3.6,8.7 -5.2,11.7 -1.7,3 -3.3,6.7 -5.1,6.3 -1.9,-0.4 -4.4,-4.6 -5.7,-7.7 -1.3,-3.1 -0.5,-10.8 3,-15.1 z"
                 fill="#f0c7b1"
                 stroke-width="none"
                 opacity="1" />
              <path
                 id="SvgjsPath5569"
                 d="m 138,92.9 c 1.9,-2.4 3.8,-5 5.9,-7.2 0.5,-0.5 1.1,-1.1 1.8,-1.5 0.3,-0.2 0.7,-0.4 1.1,-0.5 0.4,-0.1 0.9,0.1 1.2,0.3 0.3,0.2 0.6,0.5 0.9,0.8 0.1,0.1 0.2,0.3 0.4,0.5 l 0.3,0.6 c 0.3,0.7 0.6,1.5 0.8,2.3 0.4,1.6 0.7,3.2 0.8,4.8 0.2,1.6 0.3,3.3 0.1,5 -0.1,0.9 -0.4,1.7 -0.6,2.5 -0.3,0.8 -0.6,1.6 -0.9,2.3 -0.7,1.5 -1.4,3 -2.1,4.4 -0.8,1.5 -1.5,2.9 -2.2,4.3 -0.8,1.4 -1.4,3 -2.7,4.3 -0.3,0.3 -0.7,0.6 -1.1,0.8 -0.4,0.2 -0.9,0.2 -1.3,0 -0.8,-0.3 -1.3,-0.8 -1.8,-1.3 -1,-1.1 -1.8,-2.3 -2.6,-3.6 -0.4,-0.7 -0.7,-1.4 -1,-2.1 -0.2,-0.4 -0.3,-0.7 -0.4,-1.1 -0.1,-0.4 -0.3,-0.8 -0.3,-1.3 -0.1,-0.9 -0.2,-1.7 -0.2,-2.6 0,-0.9 0.1,-1.7 0.2,-2.6 0.4,-3.4 1.7,-6.7 3.7,-9.1 z m 0.1,0.1 c -1,1.2 -1.7,2.7 -2.2,4.2 -0.5,1.6 -0.8,3.2 -0.9,4.8 -0.1,1.6 0,3.2 0.3,4.6 0,0.2 0.1,0.3 0.1,0.5 l 0.2,0.5 c 0.1,0.3 0.3,0.7 0.4,1 0.3,0.7 0.6,1.3 1,1.9 0.7,1.2 1.5,2.4 2.3,3.4 0.4,0.5 0.9,0.9 1.4,1.1 0.4,0.2 0.8,0 1.3,-0.4 0.5,-0.4 0.9,-1 1.3,-1.7 0.4,-0.6 0.8,-1.3 1.2,-2 0.8,-1.4 1.7,-2.8 2.5,-4.1 0.8,-1.4 1.6,-2.8 2.3,-4.2 0.4,-0.7 0.7,-1.5 0.9,-2.2 0.3,-0.8 0.5,-1.6 0.6,-2.3 0.1,-1.6 -0.1,-3.2 -0.4,-4.7 -0.3,-1.5 -0.7,-3 -1.1,-4.5 -0.2,-0.7 -0.5,-1.4 -0.8,-2 -0.1,-0.1 -0.1,-0.3 -0.2,-0.4 -0.1,-0.1 -0.1,-0.2 -0.3,-0.3 -0.2,-0.2 -0.4,-0.5 -0.6,-0.6 -0.7,-0.6 -2,0.4 -3.1,1.2 -2.2,1.5 -4.3,3.7 -6.2,6.2 z"
                 fill="#e1ac8f"
                 stroke-width="none"
                 opacity="1" />
              <path
                 id="SvgjsPath5570"
                 d="m 148.8,99.4 c 0.3,-2.3 0.5,-7.8 -0.8,-9.6 -2.2,-2.9 -6,6.4 -6.9,9.3 0,0.1 -0.1,0.2 -0.1,0.3 -0.2,0.3 0.1,0.7 0.4,0.6 0.4,-0.2 0.9,-0.6 1.3,-0.8 1.1,-0.5 1.6,0.5 1.3,1.8 -0.4,1.8 -1.4,2.9 -2.2,4.3 -0.1,0.2 0,0.4 0.2,0.3 1.6,-0.9 3.5,-4.5 3.1,-6.6 -0.3,-2 -1.9,-1.8 -3.1,-0.8 0.7,-1.7 1.5,-3.3 2.5,-4.8 0.6,-0.9 1.2,-2 2.2,-2.2 1.2,-0.2 1,0.3 1.2,1.8 0.8,4.8 0.3,10.4 -2.5,14.5 -0.1,0.1 0,0.2 0.1,0.1 1.8,-2.3 3,-4.9 3.3,-8.2 z"
                 fill="#d19271"
                 stroke-width="none"
                 opacity="1" />
            </g>
          </g>
          <g
             id="svga-group-faceshape-wrap">
            <g
               id="svga-group-faceshape-single">
              <path
                 id="SvgjsPath5647"
                 d="M 143.6,82.2 V 81.9 C 142.3,52 122.5,35.3 100,35.3 77.5,35.3 57.8,52.1 56.5,82.1 v 0.3 c 0,1.8 0.3,11.9 2.6,24.5 2.6,13.9 7.9,28.3 11.5,35.9 3.5,7.7 14.6,10.1 29.4,10.1 14.8,0 25.8,-2.4 29.4,-10.1 3.5,-7.7 8.9,-22 11.5,-35.9 2.3,-12.7 2.7,-22.9 2.7,-24.7 z"
                 fill="#f0c7b1"
                 stroke-width="none"
                 opacity="1" />
              <path
                 id="SvgjsPath5648"
                 d="m 70.6,142.8 c 3.5,7.7 14.6,10.1 29.4,10.1 14.8,0 25.8,-2.4 29.4,-10.1 3.5,-7.7 8.9,-22 11.5,-35.9 2.3,-12.7 2.7,-22.9 2.7,-24.7 V 81.9 C 142.3,52 122.5,35.3 100,35.3 77.5,35.3 57.8,52.1 56.5,82.1 v 0.3 c 0,1.8 0.3,11.9 2.6,24.5 2.6,13.9 7.9,28.3 11.5,35.9 z M 58.1,75.5 c 0.3,-1.7 0.5,-3.4 0.9,-5 L 59.7,68 c 0.2,-0.8 0.4,-1.7 0.7,-2.4 l 0.9,-2.4 c 0.2,-0.4 0.3,-0.8 0.5,-1.2 l 0.6,-1.1 1.1,-2.3 c 0.4,-0.8 0.9,-1.5 1.3,-2.2 0.5,-0.7 0.9,-1.4 1.4,-2.1 l 1.6,-2 0.8,-1 0.9,-0.9 1.8,-1.8 c 0.6,-0.6 1.3,-1.1 1.9,-1.6 0.7,-0.5 1.2,-1.1 2,-1.6 1.4,-0.9 2.7,-1.9 4.2,-2.6 2.9,-1.7 6,-2.7 9.2,-3.7 6.4,-1.6 13.1,-1.8 19.6,-0.7 6.4,1.3 12.7,3.8 18,7.9 5.3,4.1 9.6,9.5 12.4,15.8 2.8,6.2 4.7,13.3 4.9,20.2 -0.1,6.9 -1.1,13.6 -2.4,20.4 -1.2,6.8 -3.3,13.4 -5.6,19.8 -2.4,6.4 -5,12.8 -7.9,19 -0.2,0.4 -1,2 -2.5,3.3 -1.1,0.9 -2.3,1.7 -3.7,2.4 -2.8,1.2 -6,2 -9.3,2.4 -6.6,0.9 -13.5,0.9 -20.2,0.4 -3.3,-0.2 -6.6,-0.7 -9.7,-1.6 -3.1,-0.9 -5.9,-2.2 -7.8,-4.3 -0.4,-0.5 -0.9,-1.1 -1.2,-1.7 l -1.1,-2.3 C 71.4,138.6 67.5,129 66.3,125.8 64,119.3 61.9,112.8 60.5,106.1 59,99.5 58,92.6 57.7,85.7 57.4,82.3 57.8,78.9 58.1,75.5 Z"
                 fill="#c27b55"
                 stroke-width="none"
                 opacity="1" />
            </g>
          </g>
          <g
             id="svga-group-mouth-single-move">
            <g
               id="svga-group-mouth-single">
              <path
                 id="SvgjsPath6049"
                 d="m 84.13,121.38 c 0,0 0.02,2.5 1.11,4.36 0,0 4.32,4.53 9.9,8.4 0.19,0.14 8.24,1.16 10.36,0.41 0,0 8.36,-5.19 10.19,-9.12 0,0 0.66,-1.94 0.41,-3.27 0,0 -6.34,1.76 -9.33,2.2 -2.99,0.45 -10.62,0 -14.41,-0.57 -3.8,-0.57 -7.27,-1.92 -8.23,-2.41 z"
                 fill="#000000"
                 stroke-width="none"
                 opacity="1"
                 transform="translate(0,2)" />
              <path
                 id="SvgjsPath6050"
                 d="m 106.75,124.35 c -2.99,0.45 -10.62,0 -14.41,-0.57 -3.79,-0.57 -7.26,-1.92 -8.22,-2.41 0,0 0.02,2.5 1.11,4.36 l 0.19,0.19 c 1.51,1.07 3.66,2.31 6.2,2.99 5.05,1.36 15.17,1.9 22.14,-1.92 0.58,-0.32 1.09,-0.63 1.57,-0.95 0.14,-0.21 0.25,-0.43 0.34,-0.64 0,0 0.66,-1.94 0.41,-3.27 0.01,0.02 -6.34,1.79 -9.33,2.22 z"
                 fill="#ffffff"
                 stroke-width="none"
                 opacity="1"
                 transform="translate(0,2)" />
              <path
                 id="SvgjsPath6051"
                 d="m 116.59,121.88 c 0.16,-0.2 0,-0.49 -0.28,-0.48 -1.71,0.52 -2.76,0.73 -4.08,1.09 -1.18,0.32 -9.11,1.01 -11.89,0.99 -9.17,-0.2 -13.39,-1.67 -16.1,-2.4 -0.22,-0.06 -0.44,0.18 -0.34,0.34 -0.21,1.26 1.06,4.43 1.06,4.45 2.41,3.32 6.15,6.2 9.6,8.45 2.45,1.59 9.23,1.33 10.89,0.76 2.36,-0.89 4.78,-3.17 6.36,-4.68 1.46,-1.4 3.54,-4 4.23,-5.1 0.29,-0.44 0.46,-0.97 0.57,-1.48 0.13,-0.52 0.3,-1.38 -0.02,-1.94 z m -5.54,8.28 c -2.42,2.24 -5.67,3.61 -5.82,3.62 -1.9,0.17 -3.8,0.26 -5.72,0.19 -1.36,-0.05 -4.19,-0.4 -4.31,-0.48 -1.83,-0.93 -3.63,-2.15 -5.26,-3.53 -1.59,-1.34 -3.52,-2.92 -4.56,-4.42 -0.65,-1.11 -1.02,-2.25 -0.86,-3.72 4.7,2.47 10.68,3.54 15.92,3.58 2.85,0.02 5.63,-0.36 8.4,-0.92 2.13,-0.43 5.04,-0.89 7,-2.08 -0.03,0.32 -0.02,0.66 -0.07,0.97 -0.09,0.56 0.23,2.27 -4.72,6.79 z"
                 fill="#da7c87"
                 stroke-width="none"
                 opacity="1"
                 transform="translate(0,2)" />
            </g>
          </g>
          <g
             id="svga-group-eyes-left-move">
            <g
               id="svga-group-eyes-left">
              <g
                 id="svga-group-eyesback-left">
                <path
                   id="SvgjsPath6617"
                   d="m 89.4,95.2 c 0,0 -0.9,-2.5 -2.2,-3.9 -1.4,-1.4 -5.5,-3.6 -10.2,-1.8 -4.7,1.8 -6.8,4.7 -6.8,4.7 0,0 0.7,1.8 3.4,3.2 2.7,1.5 6.4,2.7 10.4,1.4 4,-1.3 5.4,-3.6 5.4,-3.6 z"
                   fill="#ffffff"
                   stroke-width="none"
                   opacity="1" />
              </g>
              <g
                 id="svga-group-eyesiriswrapper-left">
                <g
                   id="svga-group-eyesiriscontrol-left">
                  <g
                     id="svga-group-eyesiris-left">
                    <path
                       id="SvgjsPath5682"
                       d="m 80.1,88.4 c 2.8,0 5.2,2.3 5.2,5.2 0,2.9 -2.3,5.2 -5.2,5.2 -2.9,0 -5.2,-2.3 -5.2,-5.2 0,-2.9 2.3,-5.2 5.2,-5.2 z"
                       fill="#4e60a3"
                       stroke-width="none"
                       opacity="1" />
                    <path
                       id="SvgjsPath5683"
                       d="m 80.1,90.8 c 1.5,0 2.8,1.2 2.8,2.8 0,1.6 -1.2,2.8 -2.8,2.8 -1.6,0 -2.8,-1.2 -2.8,-2.8 0,-1.6 1.2,-2.8 2.8,-2.8 z"
                       fill="#000000"
                       stroke-width="none"
                       opacity="1" />
                    <path
                       id="SvgjsPath5684"
                       d="m 79.4,91.3 -0.6,-0.6 c -0.2,-0.2 -0.4,-0.3 -0.7,-0.3 -0.2,0 -0.5,0.1 -0.7,0.3 -0.2,0.2 -0.3,0.4 -0.3,0.7 0,0.3 0.1,0.5 0.3,0.7 l 0.6,0.6 c 0.2,0.2 0.4,0.3 0.7,0.3 0.2,0 0.5,-0.1 0.7,-0.3 0.3,-0.5 0.4,-1.1 0,-1.4 z m 2.5,4.7 c 0.9,0 0.9,-1.4 0,-1.4 -0.9,0 -0.8,1.4 0,1.4 z"
                       fill="#ffffff"
                       stroke-width="none"
                       opacity="1" />
                  </g>
                </g>
              </g>
              <g
                 id="svga-group-eyesfront-left">
                <path
                   id="SvgjsPath6625"
                   d="m 69.4,94.6 c 0,6.4 4.7,11.5 10.6,11.5 5.9,0 10.6,-5.2 10.6,-11.5 0,-6.3 -4.7,-11.5 -10.6,-11.5 -5.9,0 -10.6,5.1 -10.6,11.5 z m 0.8,-0.4 c 0,0 2.1,-2.8 6.8,-4.7 4.7,-1.8 8.9,0.4 10.2,1.8 1.4,1.4 2.2,3.9 2.2,3.9 0,0 -1.4,2.3 -5.4,3.6 -4,1.3 -7.7,0.1 -10.4,-1.4 -2.7,-1.4 -3.4,-3.2 -3.4,-3.2 z"
                   fill="#f0c7b1"
                   stroke-width="none"
                   opacity="1" />
                <path
                   id="SvgjsPath6626"
                   d="m 80.6,85.4 c 5.1,0.1 9.5,4.5 9,9.7 0,0.1 -0.1,0.1 -0.1,0.1 l 0.1,0.1 c -0.6,2.6 -3.3,5.2 -5.9,5.8 -0.2,0 -0.3,-0.2 -0.1,-0.3 1.2,-0.6 2.4,-1.2 3.4,-2.2 1,-1 1.7,-2.2 2.4,-3.4 l 0.1,-0.1 V 95 c -0.7,-5.5 -5,-10.1 -11,-8.8 -2.5,0.7 -4.5,2.1 -6.2,3.8 -1.4,1.6 -2.2,3.5 -3.6,5.1 -0.1,0.2 -0.4,0 -0.3,-0.2 1.2,-5 7.1,-9.7 12.2,-9.5 z"
                   fill="#e1ac8f"
                   stroke-width="none"
                   opacity="1" />
                <path
                   id="SvgjsPath6627"
                   d="m 67.5,96.9 c 0.9,-0.7 1.8,-1.4 2.6,-2.1 4.5,6.5 14.1,6.7 19.3,1 0.1,0 0.2,-0.1 0.2,-0.2 l 0.2,-0.2 c 0.2,-0.2 0,-0.6 -0.2,-0.6 -0.5,-4.2 -5,-6.7 -9,-6.6 -5.2,0.1 -10.8,3.8 -13.8,7.9 -0.4,0.5 0.2,1.1 0.7,0.8 z m 3.1,-2.5 c 2.1,-1.8 4.3,-3.6 7.2,-4.4 4.8,-1.4 9.5,0.5 11.2,5.2 -5.5,5.5 -13.4,4.8 -18.4,-0.8 z"
                   fill="#000000"
                   stroke-width="none"
                   opacity="1" />
              </g>
            </g>
          </g>
          <g
             id="svga-group-eyes-right-move">
            <g
               id="svga-group-eyes-right">
              <g
                 id="svga-group-eyesback-right">
                <path
                   id="SvgjsPath6618"
                   d="m 110.6,95.2 c 0,0 0.9,-2.5 2.2,-3.9 1.4,-1.4 5.5,-3.6 10.2,-1.8 4.7,1.8 6.8,4.7 6.8,4.7 0,0 -0.7,1.8 -3.4,3.2 -2.7,1.5 -6.4,2.7 -10.4,1.4 -4,-1.3 -5.4,-3.6 -5.4,-3.6 z"
                   fill="#ffffff"
                   stroke-width="none"
                   opacity="1" />
              </g>
              <g
                 id="svga-group-eyesiriswrapper-right">
                <g
                   id="svga-group-eyesiriscontrol-right">
                  <g
                     id="svga-group-eyesiris-right">
                    <path
                       id="SvgjsPath5685"
                       d="m 119.9,88.4 c 2.8,0 5.2,2.3 5.2,5.2 0,2.9 -2.3,5.2 -5.2,5.2 -2.9,0 -5.2,-2.3 -5.2,-5.2 0,-2.9 2.4,-5.2 5.2,-5.2 z"
                       fill="#4e60a3"
                       stroke-width="none"
                       opacity="1" />
                    <path
                       id="SvgjsPath5686"
                       d="m 119.9,90.8 c 1.5,0 2.8,1.2 2.8,2.8 0,1.6 -1.2,2.8 -2.8,2.8 -1.6,0 -2.8,-1.2 -2.8,-2.8 0,-1.6 1.3,-2.8 2.8,-2.8 z"
                       fill="#000000"
                       stroke-width="none"
                       opacity="1" />
                    <path
                       id="SvgjsPath5687"
                       d="m 119.3,91.3 -0.6,-0.6 c -0.2,-0.2 -0.4,-0.3 -0.7,-0.3 -0.2,0 -0.5,0.1 -0.7,0.3 -0.2,0.2 -0.3,0.4 -0.3,0.7 0,0.3 0.1,0.5 0.3,0.7 l 0.6,0.6 c 0.2,0.2 0.4,0.3 0.7,0.3 0.2,0 0.5,-0.1 0.7,-0.3 0.3,-0.5 0.4,-1.1 0,-1.4 z m 2.5,4.7 c 0.9,0 0.9,-1.4 0,-1.4 -0.9,0 -0.9,1.4 0,1.4 z"
                       fill="#ffffff"
                       stroke-width="none"
                       opacity="1" />
                  </g>
                </g>
              </g>
              <g
                 id="svga-group-eyesfront-right">
                <path
                   id="SvgjsPath6628"
                   d="m 120,83.1 c -5.9,0 -10.6,5.2 -10.6,11.5 0,6.3 4.7,11.5 10.6,11.5 5.9,0 10.6,-5.2 10.6,-11.5 0,-6.3 -4.8,-11.5 -10.6,-11.5 z m 6.4,14.3 c -2.7,1.5 -6.4,2.7 -10.4,1.4 -4,-1.3 -5.4,-3.6 -5.4,-3.6 0,0 0.9,-2.5 2.2,-3.9 1.4,-1.4 5.5,-3.6 10.2,-1.8 4.7,1.8 6.8,4.7 6.8,4.7 0,0 -0.7,1.8 -3.4,3.2 z"
                   fill="#f0c7b1"
                   stroke-width="none"
                   opacity="1" />
                <path
                   id="SvgjsPath6631"
                   d="m 119.4,85.4 c -5.1,0.1 -9.5,4.5 -9,9.7 0,0.1 0.1,0.1 0.1,0.1 l -0.1,0.1 c 0.6,2.6 3.3,5.2 5.9,5.8 0.2,0 0.3,-0.2 0.1,-0.3 -1.2,-0.6 -2.4,-1.2 -3.4,-2.2 -1,-1 -1.7,-2.2 -2.4,-3.4 l -0.1,-0.1 V 95 c 0.7,-5.5 5,-10.1 11,-8.8 2.4,0.5 4.5,1.9 6.1,3.7 1.4,1.6 2.2,3.5 3.6,5.1 0.1,0.2 0.4,0 0.3,-0.2 -1.1,-4.9 -7,-9.6 -12.1,-9.4 z"
                   fill="#e1ac8f"
                   stroke-width="none"
                   opacity="1" />
                <path
                   id="SvgjsPath6632"
                   d="m 133.3,96.1 c -3,-4.1 -8.6,-7.8 -13.8,-7.9 -4,-0.1 -8.5,2.4 -9,6.6 -0.2,0 -0.4,0.3 -0.2,0.6 l 0.2,0.2 c 0,0.1 0.1,0.2 0.2,0.2 5.2,5.7 14.8,5.5 19.3,-1 0.8,0.7 1.7,1.4 2.6,2.1 0.4,0.3 1,-0.3 0.7,-0.8 z M 111,95.2 c 1.8,-4.7 6.4,-6.6 11.2,-5.2 2.9,0.8 5,2.6 7.2,4.4 -5,5.6 -12.9,6.3 -18.4,0.8 z"
                   fill="#000000"
                   stroke-width="none"
                   opacity="1" />
              </g>
            </g>
          </g>
          <g
             id="svga-group-facehighlight-single" />
          <g
             id="svga-group-eyebrows-left-move">
            <g
               id="svga-group-eyebrows-left-rotate">
              <g
                 id="svga-group-eyebrows-left">
                <path
                   id="SvgjsPath5531"
                   d="m 67,82.5 c 0.1,-0.3 0.3,-0.6 0.5,-0.8 0.1,-0.2 0.3,-0.5 0.5,-0.7 0.2,-0.2 0.4,-0.4 0.7,-0.6 0.5,-0.9 1.7,-1.6 2.5,-2.1 0.9,-0.5 1.8,-0.9 2.9,-0.9 1,-0.2 2.1,-0.2 2.9,0.2 0.4,0 0.7,0.1 1,0.3 1.1,-0.1 2.3,0.2 3.3,0.4 1.4,0.3 2.8,0.6 4.1,1.2 1.4,0 2.8,0.1 4.1,0.5 h 0.2 c 0.1,0 0.2,0.1 0.2,0.1 H 90 c 0.1,0 0.2,0.1 0.3,0.2 0.1,0.1 0,0.3 0,0.4 v 0.1 c 0,0.2 0,0.4 -0.1,0.6 0,0.6 -0.1,1.1 -0.5,1.6 0,0.1 0,0.2 -0.1,0.3 -0.1,0.5 -0.2,1.1 -0.7,1.4 -0.2,0.2 -0.5,0.3 -0.8,0.3 -0.1,0 -0.2,0 -0.3,-0.1 h -0.6 c -0.6,0.2 -1.4,0 -1.9,-0.1 -0.6,-0.1 -1.2,-0.3 -1.7,-0.6 -1.8,-0.3 -3.5,-0.8 -5.3,-1.2 -1.6,-0.4 -4,-0.4 -5.4,-1.3 -0.7,0.1 -1.3,0.2 -2,0.2 -0.3,0 -0.7,0.1 -1.1,0 -0.2,0 -0.5,0 -0.7,-0.2 0,0 -0.1,0 -0.1,-0.1 H 68.9 L 68.5,82 c -0.3,0.3 -0.7,0.7 -1.2,0.8 -0.1,0.2 -0.3,0 -0.3,-0.3 z"
                   fill="#2a232b"
                   stroke-width="none"
                   opacity="1" />
                <path
                   id="SvgjsPath5532"
                   d="m 87.7,83 c -0.1,-0.6 -0.2,-1.2 -0.4,-1.7 0,-0.2 0.2,-0.3 0.3,-0.1 0.7,1 0.9,2.8 0.2,3.9 -0.1,0.2 -0.3,0.1 -0.3,-0.1 0.1,-0.8 0.2,-1.4 0.2,-2 z m -3.4,-3.2 c 1.3,0.8 2.1,2.6 2.1,4 0,0.2 -0.3,0.3 -0.3,0.1 -0.2,-0.7 -0.4,-1.3 -0.7,-1.9 -0.3,-0.7 -0.9,-1.2 -1.3,-1.9 -0.3,-0.2 0,-0.4 0.2,-0.3 z M 81,79.1 c 2.2,0.8 3.8,3.2 4.2,5.3 0,0.2 -0.2,0.2 -0.3,0.1 -0.4,-1 -0.9,-2 -1.7,-2.8 -0.7,-0.9 -1.6,-1.4 -2.5,-2.2 -0.2,-0.1 0.1,-0.5 0.3,-0.4 z m -4.9,-0.8 c 2.4,0.6 4.8,2.6 5.8,4.7 0.1,0.2 -0.3,0.4 -0.4,0.2 -0.8,-1 -1.6,-1.9 -2.6,-2.7 -0.9,-0.7 -2,-1.2 -3,-1.8 -0.2,-0.1 -0.1,-0.4 0.2,-0.4 z M 67.4,82 c 1.6,-1.8 3.8,-4.3 6.5,-4 0.2,0 0.2,0.3 0,0.3 -2.6,0.2 -4.3,2.5 -6.3,3.9 -0.2,0.1 -0.4,-0.1 -0.2,-0.2 z"
                   fill="#3a353a"
                   stroke-width="none"
                   opacity="1" />
                <path
                   id="SvgjsPath5533"
                   d="m 90.9,80.6 c -0.1,-0.3 -0.5,-0.3 -0.6,0 -0.3,1.1 -0.3,2.4 -1.2,3.3 -0.6,0.7 -1.5,0.8 -2.4,0.7 0.3,-1.5 0.2,-3.7 -0.8,-4.9 -0.2,-0.2 -0.5,-0.1 -0.4,0.2 0,0.8 0.4,1.6 0.5,2.4 0.1,0.8 0.2,1.5 0.2,2.3 -0.1,0 -0.2,0 -0.3,-0.1 -0.3,-2 -1.3,-4.1 -2.8,-5.5 2.3,0.5 4.6,0.9 6.9,1.1 0.1,0 0.2,-0.2 0.1,-0.2 -2.6,-0.9 -5.3,-1.4 -8,-2 -2.4,-0.5 -5.1,-1.4 -7.6,-1.5 -2.1,-0.1 -3.6,0.9 -5,2.2 -1.5,1.4 -3.1,3.1 -4.1,4.9 l -0.2,0.2 c -0.1,0.1 -0.2,0.3 -0.1,0.4 0,0 0,0.1 -0.1,0.1 -0.2,0.4 0.3,0.7 0.6,0.4 0.1,0 0.2,0 0.3,-0.1 1.4,-0.7 2.5,-1.4 4.1,-1.6 1.3,-0.2 2.7,-0.1 4,0.1 2.9,0.4 5.6,1.3 8.3,2.1 2.1,0.6 4.9,1.7 6.9,0.2 1.7,-1 1.9,-3.1 1.7,-4.7 z M 77.5,81.9 C 77,81.8 76.4,81.7 75.8,81.6 75.9,80.5 75.5,79.3 75,78.3 c 0.7,0.6 1.4,1.2 2,1.9 0.6,0.6 0.9,1.4 1.5,2 -0.4,-0.1 -0.7,-0.2 -1,-0.3 z M 70,79.5 c 1.2,-1.1 2.5,-1.7 4,-1.9 0.2,0.8 0.6,1.6 0.7,2.4 l 0.3,1.5 c -0.3,0 -0.7,-0.1 -1,-0.1 -0.5,-0.9 -1.3,-1.8 -2.3,-2.1 -0.2,-0.1 -0.3,0.2 -0.2,0.4 0.4,0.4 0.9,0.8 1.3,1.2 0.1,0.2 0.2,0.3 0.4,0.5 -1.9,-0.1 -3.8,0.1 -5.4,0.8 0.6,-1 1.3,-1.9 2.2,-2.7 z m 15.2,4.8 C 85,84.2 84.8,84.2 84.6,84.1 84.2,84 83.7,83.8 83.3,83.7 c -0.8,-1.8 -2.1,-3.6 -3.7,-4.8 -0.2,-0.1 -0.4,0.1 -0.3,0.2 1.2,1.4 2.2,2.9 3.3,4.4 -1.1,-0.4 -2.2,-0.7 -3.2,-1.1 -0.2,-1.1 -1.2,-2.2 -1.9,-3 -0.7,-0.7 -1.5,-1.4 -2.4,-1.9 0.4,0 0.8,0.1 1.3,0.1 2,0.3 4,0.8 6,1.2 v 0.1 c 0.7,1.1 1.5,2.2 2.1,3.3 0.2,0.7 0.4,1.4 0.7,2.1 z"
                   fill="#1b141c"
                   stroke-width="none"
                   opacity="1" />
              </g>
            </g>
          </g>
          <g
             id="svga-group-eyebrows-right-move">
            <g
               id="svga-group-eyebrows-right-rotate">
              <g
                 id="svga-group-eyebrows-right">
                <path
                   id="SvgjsPath5534"
                   d="m 133,82.5 c -0.1,-0.3 -0.3,-0.6 -0.5,-0.8 -0.1,-0.2 -0.3,-0.5 -0.5,-0.7 -0.2,-0.2 -0.4,-0.4 -0.7,-0.6 -0.5,-0.9 -1.7,-1.6 -2.5,-2.1 -0.9,-0.5 -1.8,-0.9 -2.9,-0.9 -1,-0.2 -2.1,-0.2 -2.9,0.2 -0.4,0 -0.7,0.1 -1,0.3 -1.1,-0.1 -2.3,0.2 -3.3,0.4 -1.4,0.3 -2.8,0.6 -4.1,1.2 -1.4,0 -2.8,0.1 -4.1,0.5 h -0.2 c -0.1,0 -0.2,0.1 -0.2,0.1 H 110 c -0.1,0 -0.2,0.1 -0.3,0.2 -0.1,0.1 0,0.3 0,0.4 v 0.1 c 0,0.2 0,0.4 0.1,0.6 0,0.6 0.1,1.1 0.5,1.6 0,0.1 0,0.2 0.1,0.3 0.1,0.5 0.2,1.1 0.7,1.4 0.2,0.2 0.5,0.3 0.8,0.3 0.1,0 0.2,0 0.3,-0.1 h 0.6 c 0.6,0.2 1.4,0 1.9,-0.1 0.6,-0.1 1.2,-0.3 1.7,-0.6 1.8,-0.3 3.5,-0.8 5.3,-1.2 1.6,-0.4 4,-0.4 5.4,-1.3 0.7,0.1 1.4,0.2 2,0.2 0.3,0 0.7,0.1 1.1,0 0.2,0 0.5,0 0.7,-0.2 0,0 0.1,0 0.1,-0.1 h 0.1 l 0.4,0.4 c 0.3,0.3 0.7,0.7 1.2,0.8 0.1,0.2 0.3,0 0.3,-0.3 z"
                   fill="#2a232b"
                   stroke-width="none"
                   opacity="1" />
                <path
                   id="SvgjsPath5535"
                   d="m 112.3,83 c 0.1,-0.6 0.2,-1.2 0.4,-1.7 0,-0.2 -0.2,-0.3 -0.3,-0.1 -0.7,1 -0.9,2.8 -0.2,3.9 0.1,0.2 0.3,0.1 0.3,-0.1 -0.1,-0.8 -0.2,-1.4 -0.2,-2 z m 3.4,-3.2 c -1.3,0.8 -2.1,2.6 -2.1,4 0,0.2 0.3,0.3 0.3,0.1 0.2,-0.7 0.4,-1.3 0.7,-1.9 0.3,-0.7 0.9,-1.2 1.3,-1.9 0.3,-0.2 0,-0.4 -0.2,-0.3 z m 3.3,-0.7 c -2.2,0.8 -3.8,3.2 -4.2,5.3 0,0.2 0.2,0.2 0.3,0.1 0.4,-1 0.9,-2 1.7,-2.8 0.7,-0.9 1.6,-1.4 2.5,-2.2 0.2,-0.1 -0.1,-0.5 -0.3,-0.4 z m 4.9,-0.8 c -2.4,0.6 -4.8,2.6 -5.8,4.7 -0.1,0.2 0.3,0.4 0.4,0.2 0.8,-1 1.6,-1.9 2.6,-2.7 0.9,-0.7 2,-1.2 3,-1.8 0.2,-0.1 0.1,-0.4 -0.2,-0.4 z m 8.7,3.7 c -1.6,-1.8 -3.8,-4.3 -6.5,-4 -0.2,0 -0.2,0.3 0,0.3 2.6,0.2 4.3,2.5 6.3,3.9 0.2,0.1 0.4,-0.1 0.2,-0.2 z"
                   fill="#3a353a"
                   stroke-width="none"
                   opacity="1" />
                <path
                   id="SvgjsPath5536"
                   d="m 110.6,85.3 c 2,1.5 4.8,0.4 6.9,-0.2 2.8,-0.8 5.5,-1.8 8.3,-2.1 1.3,-0.2 2.7,-0.3 4,-0.1 1.6,0.2 2.7,0.9 4.1,1.6 0.1,0.1 0.2,0.1 0.3,0.1 0.3,0.3 0.8,0 0.6,-0.4 0,0 0,-0.1 -0.1,-0.1 0,-0.1 0,-0.3 -0.1,-0.4 l -0.2,-0.2 c -1,-1.8 -2.6,-3.5 -4.1,-4.9 -1.4,-1.3 -2.9,-2.3 -5,-2.2 -2.5,0.1 -5.2,1 -7.6,1.5 -2.7,0.6 -5.4,1.1 -8,2 -0.2,0.1 -0.1,0.2 0.1,0.2 2.3,-0.2 4.6,-0.6 6.9,-1.1 -1.5,1.4 -2.5,3.5 -2.8,5.5 -0.1,0 -0.2,0 -0.3,0.1 0.1,-0.8 0.1,-1.5 0.2,-2.3 0.1,-0.8 0.5,-1.6 0.5,-2.4 0,-0.2 -0.3,-0.3 -0.4,-0.2 -1,1.2 -1.1,3.4 -0.8,4.9 -0.9,0.1 -1.7,0 -2.4,-0.7 -0.8,-0.9 -0.9,-2.2 -1.2,-3.4 -0.1,-0.3 -0.5,-0.3 -0.6,0 0,1.7 0.2,3.8 1.7,4.8 z m 10.9,-3.2 c 0.5,-0.6 0.9,-1.4 1.5,-2 0.6,-0.7 1.3,-1.3 2,-1.9 -0.5,1 -0.9,2.3 -0.8,3.3 -0.6,0.1 -1.2,0.2 -1.7,0.3 -0.3,0.2 -0.6,0.3 -1,0.3 z m 10.8,0 c -1.6,-0.7 -3.6,-0.9 -5.4,-0.8 0.1,-0.2 0.2,-0.3 0.4,-0.5 0.4,-0.5 0.9,-0.8 1.3,-1.2 0.1,-0.1 0.1,-0.4 -0.2,-0.4 -1,0.3 -1.8,1.2 -2.3,2.1 -0.3,0 -0.7,0.1 -1,0.1 l 0.3,-1.5 c 0.2,-0.8 0.5,-1.6 0.7,-2.4 1.4,0.2 2.7,0.8 4,1.9 0.8,0.9 1.5,1.8 2.2,2.7 z m -16.7,0.2 c 0.6,-1.2 1.4,-2.2 2.1,-3.3 v -0.1 c 2,-0.4 4,-0.9 6,-1.2 0.4,-0.1 0.9,-0.1 1.3,-0.1 -0.9,0.5 -1.7,1.2 -2.4,1.9 -0.7,0.8 -1.7,1.9 -1.9,3 -1.1,0.3 -2.2,0.7 -3.2,1.1 1,-1.5 2.1,-2.9 3.3,-4.4 0.1,-0.2 -0.1,-0.3 -0.3,-0.2 -1.6,1.2 -2.9,3 -3.7,4.8 -0.4,0.1 -0.9,0.3 -1.3,0.4 -0.2,0.1 -0.4,0.1 -0.6,0.2 0.2,-0.8 0.4,-1.5 0.7,-2.1 z"
                   fill="#1b141c"
                   stroke-width="none"
                   opacity="1" />
              </g>
            </g>
          </g>
          <g
             id="svga-group-beardwrap">
            <g
               id="svga-group-beard-single-move">
              <g
                 id="svga-group-beard-single" />
            </g>
          </g>
          <g
             id="svga-group-mustache-single-move">
            <g
               id="svga-group-mustache-single" />
          </g>
          <g
             id="svga-group-nose-single-move">
            <g
               id="svga-group-nose-single">
              <path
                 id="SvgjsPath5717"
                 d="m 105.06,106.65 c 0.56,0.92 2.64,3.61 3.09,4.9 0.45,1.29 -0.13,3.22 -1.48,3.61 -1.35,0.39 -3.61,-0.39 -3.93,-0.19 -0.32,0.19 -1.87,2.06 -2.58,1.93 -0.71,-0.13 -2.64,-2.13 -3.03,-2.13 -0.39,0 -2.13,0.45 -2.97,0.45 -0.84,0 -2.9,-0.71 -2.64,-2.51 0.26,-1.81 2.45,-5.54 2.9,-6.06 0.45,-0.52 1.48,-2.32 1.74,-3.42 0.26,-1.1 0.58,-7.03 0.71,-8.38 0.13,-1.35 1.35,-2.97 2.58,-3.09 1.23,-0.13 3.35,0.77 3.55,2.9 0.19,2.13 0.58,6.38 0.77,8.12 0.19,1.74 0.58,2.71 1.29,3.87 z"
                 fill="#f0c7b1"
                 stroke-width="none"
                 opacity="1"
                 transform="translate(0,1)" />
              <path
                 id="SvgjsPath5718"
                 d="m 97.62,85.76 c -0.84,3.5 -0.96,7.24 -1.34,10.81 -0.4,3.83 -1.14,7.78 -1.09,11.63 0,0.31 0.48,0.39 0.55,0.07 0.78,-3.52 0.88,-7.26 1.24,-10.84 0.39,-3.82 1.1,-7.79 0.98,-11.63 0,-0.18 -0.29,-0.24 -0.34,-0.04 z"
                 fill="#c27b55"
                 stroke-width="none"
                 opacity="1"
                 transform="translate(0,1)" />
              <path
                 id="SvgjsPath5719"
                 d="m 94.46,106.19 c -1.03,1.37 -1.9,2.87 -2.65,4.41 -0.49,1 -1.09,2.17 -0.77,3.32 0.53,1.89 2.93,2.49 4.5,1.58 0.47,-0.27 0.26,-0.99 -0.27,-1 -0.92,-0.01 -1.98,0.28 -2.72,-0.5 -0.88,-0.94 -0.01,-2.63 0.38,-3.57 0.58,-1.39 1.28,-2.72 1.83,-4.12 0.07,-0.19 -0.2,-0.26 -0.3,-0.12 z"
                 fill="#c27b55"
                 stroke-width="none"
                 opacity="1"
                 transform="translate(0,1)" />
              <path
                 id="SvgjsPath5720"
                 d="m 94.31,113.98 c 2.84,-0.21 3.38,3.37 6.07,3.45 2.31,0.07 2.5,-3.41 4.69,-3.3 0.26,0.01 0.34,-0.35 0.13,-0.47 -2.49,-1.47 -2.95,2.86 -5.24,2.59 -1.36,-0.16 -2.32,-2.16 -3.54,-2.73 -0.83,-0.39 -1.43,-0.36 -2.23,0.02 -0.22,0.09 -0.11,0.46 0.12,0.44 z"
                 fill="#c27b55"
                 stroke-width="none"
                 opacity="1"
                 transform="translate(0,1)" />
              <path
                 id="SvgjsPath5721"
                 d="m 104.29,115.6 c 1.87,0.42 4.05,-0.16 4.49,-2.24 0.22,-1.04 -0.13,-2.07 -0.67,-2.95 -0.89,-1.44 -2.03,-2.66 -2.87,-4.15 -0.14,-0.25 -0.49,-0.12 -0.51,0.14 -0.11,1.67 1.13,2.83 2.02,4.12 0.82,1.19 1.53,2.83 0.15,4 -0.63,0.54 -1.83,0.44 -2.6,0.59 -0.26,0.04 -0.25,0.43 -0.01,0.49 z"
                 fill="#c27b55"
                 stroke-width="none"
                 opacity="1"
                 transform="translate(0,1)" />
              <path
                 id="SvgjsPath5722"
                 d="m 102.45,109.98 c -0.41,-0.74 -1.47,-0.85 -2.06,-0.26 -0.05,0.05 -0.24,0.29 -0.3,0.36 -0.07,0.09 -0.2,0.26 -0.23,0.29 -0.07,0.1 -0.12,0.21 -0.18,0.32 l -0.12,0.28 c 0,-0.01 -0.01,0.01 -0.03,0.05 -0.06,0.06 -0.12,0.13 -0.18,0.2 -0.18,0.19 -0.36,0.38 -0.5,0.6 -0.42,0.67 -0.08,1.42 0.48,1.84 0.87,0.65 2.13,0.13 2.74,-0.61 0.76,-0.89 0.96,-2.03 0.38,-3.07 z"
                 fill="#f8d5c3"
                 stroke-width="none"
                 opacity="1"
                 transform="translate(0,1)" />
            </g>
          </g>
          <g
             id="svga-group-hair-front">
            <path
               id="SvgjsPath8383"
               d="m 84.9,37.3 c 0,0 1,3.5 4.1,5.4 3.1,1.9 8.7,2.5 8.7,2.5 0,0 6.6,1.3 8.9,0.8 2.3,-0.5 5.9,-2.2 5.9,-2.2 0,0 1.4,-0.2 2.4,-1.8 1,-1.6 0.3,-4.4 0.3,-4.4 0,0 -1.6,-3 -6.7,-3.2 0,0 -4.8,-1 -7.2,-0.7 -2.4,0.2 -3.3,1 -3.3,1 0,0 -3.9,-0.4 -7.2,1.1 0.1,-0.2 -3.6,0 -5.9,1.5 z m 52.9,20.9 c 0,0 3.6,2.5 3.7,7.5 0,0 1.7,0.8 1.6,6 0,0 1.4,2.5 1,6.3 0,0 0.7,1.7 0.1,4 -0.2,0.7 0.7,3.6 0.2,4.5 -3.4,5.5 -5.6,4.5 -5.6,4.5 0,0 -1.3,-0.7 -0.4,-2.9 0,0 -2.7,0.4 -1.2,-5.4 0,0 -1.8,-0.3 -1.2,-3.5 0,0 -1.7,-1.8 -0.4,-5.4 0,0 -1.4,-2 -0.1,-4.3 -0.1,0 2,-7.3 2.3,-11.3 z m -75.6,0 c 0,0 -3.6,2.5 -3.7,7.5 0,0 -1.7,0.8 -1.6,6 0,0 -1.4,2.5 -1,6.3 0,0 -0.7,1.7 -0.1,4 0.2,0.7 -0.7,3.6 -0.2,4.5 3.4,5.5 5.7,4.5 5.7,4.5 0,0 1.3,-0.7 0.4,-2.9 0,0 2.7,0.4 1.2,-5.4 0,0 1.8,-0.3 1.2,-3.5 0,0 1.7,-1.8 0.4,-5.4 0,0 1.4,-2 0.1,-4.3 0,0 -2.1,-7.3 -2.4,-11.3 z"
               fill="#887e69"
               stroke-width="none"
               opacity="1"
               stroke="none" />
            <path
               id="SvgjsPath8384"
               d="m 136.2,70.3 c 0.1,-0.9 0.1,-1.9 0.2,-2.8 -0.3,0.8 -0.6,1.6 -1,2.2 -0.1,0.1 -0.2,0 -0.2,-0.1 0.4,-2 1.1,-3.8 1.4,-5.8 0.3,-2 0.4,-4 0.7,-6 0,-0.2 0.2,-0.2 0.3,-0.2 h 0.1 c 2.6,1.1 4.2,5 4.3,8.4 0.1,-0.2 0.4,-0.3 0.5,-0.1 0.8,1.4 1,3.3 0.9,5.2 0.8,1.9 1.1,4.1 0.9,6.1 0,0 0.1,0 0.1,0.1 0.3,1.4 0.4,3.2 0.1,5 2.3,3.2 -1.8,8.4 -4.6,9.3 -0.3,0.1 -0.4,-0.3 -0.3,-0.5 0.9,-1.2 2.3,-1.9 3.2,-3.1 1.1,-1.4 1.3,-2.8 1.3,-4.3 -0.6,2.3 -1.8,4.5 -3.4,5.6 -0.1,0.1 -0.2,-0.1 -0.2,-0.2 1,-1.9 2.2,-3.3 2.9,-5.4 0.5,-1.6 0.6,-3.3 0.7,-5 -0.1,0.5 -0.2,1 -0.4,1.4 -0.1,0.2 -0.4,0.2 -0.4,-0.1 0.2,-2.6 0.2,-4.9 -0.1,-7.4 -0.2,0.9 -0.5,1.8 -0.8,2.5 -0.1,0.3 -0.5,0.1 -0.4,-0.2 0.3,-1.5 0.6,-3.2 0.6,-4.7 0,-1.3 -0.4,-2.6 -0.4,-3.9 0,1.1 -0.1,2.1 -0.4,2.9 -0.1,0.2 -0.4,0.1 -0.4,-0.1 -0.1,-2.1 0,-4.1 -0.7,-6.1 -0.6,-1.8 -1.7,-2.9 -2.6,-4.3 0,2.6 -0.4,5.4 -1.2,7.9 0.1,0 0.3,0 0.3,0.2 0.6,2.2 -0.1,5.1 -1.2,6.9 -0.1,0.2 -0.5,0.1 -0.4,-0.2 0,-1 0.4,-2.1 0.6,-3.2 z m 1.9,3.2 c 0.4,-1.8 0.4,-3.6 0.6,-5.4 0,-0.2 0.4,-0.2 0.4,0 0.4,2.2 0.1,4.8 -0.7,7.2 0.1,0 0.2,0.1 0.2,0.2 0.2,2.5 -0.4,5.1 -1.3,7.3 -0.1,0.2 -0.3,0.1 -0.3,-0.1 0.6,-2.2 0.8,-4.3 1,-6.5 -0.5,1.2 -1.1,2.3 -1.8,3.2 -0.2,0.3 -0.6,-0.1 -0.4,-0.3 1,-1.9 1.8,-3.6 2.3,-5.6 z m 3.1,7 c 0.1,-0.3 0.5,-0.3 0.5,0.1 -0.2,2.8 -1.5,5.4 -3.1,7.6 -0.1,0.2 -0.5,-0.1 -0.4,-0.3 1.5,-2.4 2.2,-4.8 3,-7.4 z m -0.6,5.6 c 0.1,-0.2 0.4,-0.2 0.4,0.1 -0.1,1.8 -0.8,3.8 -2.1,5 -0.2,0.2 -0.5,0 -0.4,-0.3 0.7,-1.6 1.4,-3.1 2.1,-4.8 z M 63.8,70.3 c -0.2,-0.9 -0.2,-1.9 -0.2,-2.8 0.3,0.8 0.6,1.6 1,2.2 0.1,0.1 0.2,0 0.2,-0.1 -0.4,-2 -1.1,-3.8 -1.4,-5.8 -0.3,-2 -0.4,-4 -0.7,-6 0,-0.2 -0.2,-0.2 -0.3,-0.2 -2.5,1.1 -4.2,5 -4.3,8.4 0,-0.2 -0.4,-0.3 -0.5,-0.1 -0.8,1.4 -1,3.3 -0.9,5.2 -0.8,1.9 -1.1,4.1 -0.9,6.1 0,0 -0.1,0 -0.1,0.1 -0.3,1.4 -0.3,3.2 0,5 -2.3,3.2 1.8,8.4 4.6,9.3 0.3,0.1 0.4,-0.3 0.3,-0.5 -0.8,-1.2 -2.3,-1.9 -3.2,-3.1 -1.1,-1.4 -1.3,-2.8 -1.3,-4.3 0.6,2.3 1.8,4.5 3.4,5.6 0.1,0.1 0.2,-0.1 0.2,-0.2 -1,-1.9 -2.2,-3.3 -2.8,-5.4 -0.5,-1.6 -0.6,-3.3 -0.7,-5 0.1,0.5 0.2,1 0.4,1.4 0.1,0.2 0.4,0.2 0.4,-0.1 -0.2,-2.6 -0.2,-4.9 0.1,-7.4 0.2,0.9 0.5,1.8 0.8,2.5 0.1,0.3 0.5,0.1 0.4,-0.2 -0.3,-1.5 -0.6,-3.2 -0.6,-4.7 0,-1.3 0.3,-2.6 0.4,-3.9 0,1.1 0.1,2.1 0.4,2.9 0.1,0.2 0.4,0.1 0.4,-0.1 0.1,-2.1 0,-4.1 0.7,-6.1 0.6,-1.8 1.7,-2.9 2.6,-4.3 0,2.6 0.4,5.4 1.2,7.9 -0.1,0 -0.3,0 -0.3,0.2 -0.6,2.2 0.1,5.1 1.2,6.9 0.1,0.2 0.5,0.1 0.4,-0.2 -0.4,-1 -0.7,-2.1 -0.9,-3.2 z m -1.9,3.2 c -0.4,-1.8 -0.4,-3.6 -0.6,-5.4 0,-0.2 -0.4,-0.2 -0.4,0 -0.4,2.2 -0.1,4.8 0.7,7.2 -0.1,0 -0.2,0.1 -0.2,0.2 -0.2,2.5 0.4,5.1 1.3,7.3 0.1,0.2 0.3,0.1 0.3,-0.1 -0.6,-2.2 -0.8,-4.3 -1,-6.5 0.5,1.2 1.1,2.3 1.8,3.2 0.2,0.3 0.6,-0.1 0.4,-0.3 -1,-1.9 -1.8,-3.6 -2.3,-5.6 z m -3.1,7 c -0.1,-0.3 -0.5,-0.3 -0.5,0.1 0.2,2.8 1.5,5.4 3.1,7.6 0.2,0.2 0.5,-0.1 0.3,-0.3 -1.4,-2.4 -2.1,-4.8 -2.9,-7.4 z m 0.7,5.6 c -0.1,-0.2 -0.4,-0.2 -0.4,0.1 0.1,1.8 0.8,3.8 2.1,5 0.2,0.2 0.5,0 0.4,-0.3 -0.8,-1.6 -1.6,-3.1 -2.1,-4.8 z m 52.3,-42.5 c -2.2,0.7 -4.2,1.6 -6.5,1.8 -2.3,0.2 -4.5,-0.1 -6.8,-0.5 -0.4,-0.1 -0.5,0.4 -0.2,0.6 4.1,1.7 10.2,1.5 13.8,-1.4 0.3,-0.2 0,-0.6 -0.3,-0.5 z m 3.7,-6.2 c -0.4,-1.2 -1.9,-2.1 -2.9,-2.6 -1.2,-0.6 -2.5,-0.8 -3.8,-0.6 -0.1,0 -0.1,0.1 -0.1,0.2 -3.2,-1.7 -7.6,-1.7 -10.6,-0.3 -0.1,0 -0.1,0.1 -0.1,0.1 -2.7,-0.5 -5.7,-0.1 -7.8,1.2 -1.8,-0.1 -3.7,0.3 -5.1,1.7 -0.1,0.1 -0.1,0.2 -0.1,0.4 -0.2,0 -0.6,0.2 -0.4,0.5 1.5,4.6 7.3,8.2 12.2,7.7 0.4,0 0.4,-0.5 0.1,-0.6 -2.2,-0.9 -4.4,-1.2 -6.5,-2.3 -2.2,-1.2 -3.7,-2.9 -5,-5 h 0.2 c 3.9,-2.4 7.2,-0.6 10.9,1.2 0.2,0.1 0.5,-0.2 0.3,-0.4 -1.3,-1.4 -3.2,-2.4 -5.1,-2.9 1.5,-0.4 3,-0.7 4.7,-0.7 2.1,0.1 3.9,0.9 5.8,1.6 0.3,0.1 0.5,-0.3 0.3,-0.5 -1,-0.8 -2.3,-1.3 -3.6,-1.7 2.3,-0.5 4.6,-0.6 6.8,0 2.4,0.6 3.9,2 5.9,3.2 0.3,0.2 0.6,-0.2 0.4,-0.4 -0.8,-1.2 -1.8,-2 -3,-2.7 1.3,0 2.6,0.5 3.6,1.2 0.9,0.6 1.5,1.5 2.4,2.1 0.1,1.1 0.5,2 0.1,3.1 -0.3,1.1 -1.2,2 -2.2,2.7 -0.3,0.2 -0.1,0.6 0.2,0.5 2.3,-0.9 4.3,-4.5 2.4,-6.7 z"
               fill="#796c51"
               stroke-width="none"
               opacity="1"
               stroke="none" />
            <path
               id="SvgjsPath8385"
               d="m 103.8,34.6 c -0.2,0 -0.4,0.3 -0.1,0.4 3.7,0.8 5.9,3.1 8.1,6 0.2,0.2 0.5,0 0.4,-0.2 -1.1,-3.5 -4.9,-5.7 -8.4,-6.2 z m 5.5,6.1 c -0.7,-1.5 -2.4,-2.6 -3.8,-3.3 -0.2,-0.1 -0.5,0.2 -0.2,0.4 0.7,0.4 1.4,0.9 2,1.5 0.6,0.5 1,1.2 1.6,1.7 0.2,0.1 0.5,-0.1 0.4,-0.3 z M 97.8,36.5 c -0.2,-0.1 -0.4,0.3 -0.2,0.4 1.4,0.8 2.8,1.7 3.9,2.8 1.2,1.2 2,2.5 2.9,3.8 0.2,0.3 0.7,0.1 0.6,-0.2 -1.1,-3.1 -4.2,-5.7 -7.2,-6.8 z m 42.6,29.3 c -0.1,-0.2 -0.4,-0.1 -0.3,0.1 0.4,2.9 0.1,5.8 -0.4,8.6 -0.1,0.3 0.4,0.4 0.5,0.1 1,-2.9 0.9,-5.9 0.2,-8.8 z m 1.4,9.3 c -0.4,2 -1,3.9 -1.4,5.9 0,0.2 0.3,0.4 0.4,0.2 0.9,-1.8 1.2,-4 1.5,-6 0,-0.3 -0.4,-0.3 -0.5,-0.1 z m 0.3,3.7 c -0.2,1.2 -0.6,2.1 -1.1,3.2 -0.1,0.2 0.2,0.4 0.3,0.3 0.8,-0.9 1.2,-2.2 1.3,-3.4 0.1,-0.3 -0.4,-0.4 -0.5,-0.1 z M 64.5,76.6 c -1,-1.7 -2,-3.1 -2.2,-5.1 0,-0.3 -0.5,-0.4 -0.6,0 -0.1,2 0.7,4.3 2.4,5.4 0.2,0.2 0.5,-0.1 0.4,-0.3 z M 61.8,65.3 c -0.1,-0.3 -0.5,-0.2 -0.5,0.1 0.3,1.6 0.6,3.2 1.2,4.8 0.1,0.2 0.4,0.2 0.4,-0.1 -0.2,-1.6 -0.7,-3.2 -1.1,-4.8 z m -1.3,13.5 c -0.1,-0.3 -0.6,-0.2 -0.5,0.1 0.3,1.4 0.4,2.9 1,4.2 0.1,0.2 0.5,0.1 0.5,-0.1 0,-1.4 -0.6,-2.8 -1,-4.2 z m 78.7,-17.6 c -0.1,-0.3 -0.4,-0.2 -0.5,0 -0.3,1 -0.3,2.1 -0.4,3.2 -0.2,1.1 -0.4,2.1 -0.6,3.2 0,0.3 0.4,0.6 0.5,0.2 0.8,-1.9 1.4,-4.6 1,-6.6 z"
               fill="#979184"
               stroke-width="none"
               opacity="1"
               stroke="none" />
          </g>
          <g
             id="svga-group-glasses-single-move">
            <g
               id="svga-group-glasses-single">
              <path
                 id="SvgjsPath7724"
                 d="m 95.79,91.36 c 0,0 0.32,-2.16 -3.48,-3.45 C 89.43,86.93 86.42,86.8 84,86.8 c -2.42,0 -10.25,-0.09 -12.23,0.09 -1.98,0.19 -4.96,0.38 -5.95,3.32 -0.99,2.94 0.33,7.88 4.3,10.35 3.97,2.47 12.23,2.66 17.52,1.04 5.28,-1.6 7.71,-5.27 8.15,-10.24 z"
                 fill="#ffffff"
                 stroke-width="none"
                 opacity="0.44" />
              <path
                 id="SvgjsPath7725"
                 d="m 104.21,91.36 c 0,0 -0.32,-2.16 3.48,-3.45 2.88,-0.98 5.89,-1.11 8.31,-1.11 2.42,0 10.25,-0.09 12.23,0.09 1.98,0.19 4.96,0.38 5.95,3.32 0.99,2.94 -0.33,7.88 -4.3,10.35 -3.97,2.47 -12.23,2.66 -17.52,1.04 -5.28,-1.6 -7.71,-5.27 -8.15,-10.24 z"
                 fill="#ffffff"
                 stroke-width="none"
                 opacity="0.44" />
              <path
                 id="SvgjsPath7726"
                 d="m 95.78,90.77 c 0,0 3.57,-1.69 8.41,0 v 0.98 c 0,0 -5.18,-0.98 -8.5,0 z"
                 fill="#070201"
                 stroke-width="none"
                 opacity="1" />
              <path
                 id="SvgjsPath7727"
                 d="m 79.82,103.04 c -4.1,0 -7.71,-0.78 -9.9,-2.15 -3.57,-2.22 -4.97,-6.32 -4.76,-9.18 l 0.01,-0.13 h -2.4 v -2.06 h 2.93 l 0.03,-0.07 c 1.22,-2.47 3.98,-2.73 5.81,-2.91 l 0.19,-0.02 c 0.85,-0.08 2.8,-0.12 5.97,-0.12 1.45,0 2.93,0.01 4.18,0.01 0.9,0.01 1.62,0.01 2.12,0.01 2.38,0 5.48,0.13 8.43,1.13 3.9,1.32 3.76,3.59 3.73,3.84 -0.49,5.46 -3.32,9.02 -8.42,10.58 -2.24,0.69 -5.06,1.07 -7.92,1.07 z M 77.75,87.15 c -3.18,0 -5.13,0.04 -5.95,0.12 l -0.19,0.02 c -2.03,0.19 -4.56,0.43 -5.44,3.05 -0.99,2.93 0.44,7.61 4.14,9.91 2.07,1.29 5.53,2.02 9.51,2.02 2.77,0 5.58,-0.37 7.7,-1.02 4.85,-1.48 7.43,-4.73 7.89,-9.93 0.02,-0.21 0.1,-1.93 -3.23,-3.06 -2.85,-0.97 -5.87,-1.09 -8.19,-1.09 -0.5,0 -2.22,-0.01 -2.22,-0.01 -1.16,0 -2.6,-0.01 -4.02,-0.01 z"
                 fill="#26120b"
                 stroke-width="none"
                 opacity="1" />
              <path
                 id="SvgjsPath7728"
                 d="m 77.7,86.53 c 1.45,0 2.92,0.01 4.17,0.01 h 0.05 c 0.85,0 1.57,0.01 2.07,0.01 2.37,0 5.46,0.13 8.39,1.12 3.8,1.29 3.68,3.47 3.65,3.71 -0.48,5.41 -3.29,8.93 -8.33,10.47 -2.24,0.68 -5.04,1.06 -7.89,1.06 -4.08,0 -7.66,-0.78 -9.84,-2.13 -3.53,-2.2 -4.91,-6.24 -4.7,-9.06 l 0.02,-0.27 h -2.41 v -1.81 h 2.89 l 0.07,-0.14 c 1.19,-2.41 3.91,-2.67 5.71,-2.84 l 0.19,-0.02 c 0.85,-0.08 2.79,-0.11 5.96,-0.11 m 2.12,15.87 c 2.82,0 5.57,-0.36 7.74,-1.03 4.9,-1.5 7.51,-4.78 7.98,-10.06 0.02,-0.2 0.1,-2.01 -3.31,-3.17 -2.86,-0.97 -5.9,-1.1 -8.23,-1.1 -0.5,0 -1.22,0 -2.07,-0.01 h -0.15 c -1.17,-0.01 -2.6,-0.01 -4.03,-0.01 -3.19,0 -5.14,0.04 -5.96,0.12 l -0.19,0.02 c -1.96,0.18 -4.64,0.44 -5.55,3.14 -1,2.97 0.44,7.73 4.19,10.06 2.09,1.3 5.58,2.04 9.58,2.04 M 77.7,86.28 c -2.53,0 -4.97,0.02 -5.98,0.12 l -0.19,0.02 c -1.89,0.18 -4.66,0.44 -5.91,2.98 h -2.98 v 2.31 h 2.39 c -0.23,3.15 1.4,7.16 4.82,9.29 2.41,1.5 6.19,2.17 9.97,2.17 2.85,0 5.71,-0.38 7.96,-1.07 5.15,-1.57 8.01,-5.17 8.51,-10.68 0.03,-0.27 0.17,-2.62 -3.82,-3.97 C 89.5,86.43 86.38,86.3 84,86.3 c -0.5,0 -1.22,0 -2.07,-0.01 -1.26,-0.01 -2.76,-0.01 -4.23,-0.01 z m 2.12,15.87 c -3.6,0 -7.21,-0.62 -9.45,-2.01 -3.65,-2.27 -5.06,-6.88 -4.09,-9.77 0.86,-2.55 3.34,-2.78 5.34,-2.97 l 0.19,-0.02 c 0.97,-0.09 3.44,-0.12 5.94,-0.12 1.48,0 2.98,0.01 4.17,0.01 0.85,0 1.58,0.01 2.08,0.01 2.31,0 5.32,0.12 8.15,1.08 3.27,1.11 3.16,2.81 3.15,2.91 v 0.02 c -0.46,5.15 -3.01,8.36 -7.8,9.82 -2.15,0.68 -4.91,1.04 -7.68,1.04 z"
                 fill="#070201"
                 stroke-width="none"
                 opacity="1" />
              <path
                 id="SvgjsPath7729"
                 d="m 120.18,103.04 c -2.86,0 -5.68,-0.38 -7.93,-1.06 -5.1,-1.56 -7.93,-5.11 -8.42,-10.58 -0.03,-0.26 -0.17,-2.52 3.73,-3.84 2.95,-1 6.06,-1.13 8.43,-1.13 0.5,0 1.22,0 2.07,-0.01 1.3,-0.01 2.78,-0.02 4.23,-0.02 3.17,0 5.12,0.04 5.97,0.12 l 0.18,0.02 c 1.83,0.17 4.59,0.43 5.81,2.91 l 0.04,0.07 h 2.93 v 2.06 h -2.39 l 0.01,0.13 c 0.21,2.86 -1.19,6.96 -4.76,9.18 -2.19,1.36 -5.8,2.15 -9.9,2.15 z m 2.07,-15.89 c -1.42,0 -2.86,0.01 -4.03,0.01 0,0 -1.73,0.01 -2.22,0.01 -2.32,0 -5.35,0.12 -8.19,1.09 -3.32,1.13 -3.25,2.85 -3.23,3.04 0.47,5.23 3.05,8.47 7.89,9.95 2.12,0.65 4.93,1.02 7.7,1.02 3.98,0 7.44,-0.74 9.51,-2.02 3.7,-2.3 5.13,-6.98 4.14,-9.91 -0.88,-2.62 -3.41,-2.86 -5.45,-3.05 l -0.19,-0.02 c -0.8,-0.08 -2.75,-0.12 -5.93,-0.12 z"
                 fill="#26120b"
                 stroke-width="none"
                 opacity="1" />
              <path
                 id="SvgjsPath7730"
                 d="m 122.3,86.28 v 0.25 c 3.17,0 5.11,0.04 5.96,0.12 l 0.19,0.02 c 1.8,0.17 4.52,0.43 5.71,2.84 l 0.07,0.14 h 2.89 v 1.81 h -2.41 l 0.02,0.27 c 0.21,2.83 -1.17,6.87 -4.7,9.06 -2.18,1.35 -5.76,2.13 -9.84,2.13 -2.85,0 -5.65,-0.38 -7.89,-1.06 -5.04,-1.54 -7.85,-5.06 -8.33,-10.47 -0.03,-0.24 -0.16,-2.42 3.65,-3.71 2.93,-0.99 6.02,-1.12 8.39,-1.12 0.5,0 1.22,0 2.07,-0.01 h 0.06 c 1.25,-0.01 2.72,-0.01 4.17,-0.01 v -0.26 m -2.13,16.12 c 4,0 7.49,-0.74 9.58,-2.04 3.75,-2.33 5.2,-7.08 4.19,-10.06 -0.91,-2.7 -3.59,-2.95 -5.55,-3.14 l -0.19,-0.02 c -0.82,-0.08 -2.77,-0.12 -5.96,-0.12 -1.42,0 -2.86,0.01 -4.03,0.01 h -0.15 c -0.85,0 -1.58,0.01 -2.07,0.01 -2.33,0 -5.37,0.12 -8.23,1.1 -3.41,1.16 -3.33,2.97 -3.31,3.19 0.47,5.26 3.08,8.54 7.98,10.04 2.17,0.67 4.91,1.03 7.74,1.03 m 2.12,-16.12 c -1.47,0 -2.97,0.01 -4.23,0.02 -0.85,0 -1.57,0.01 -2.07,0.01 -2.39,0 -5.51,0.13 -8.47,1.14 -3.99,1.35 -3.85,3.71 -3.82,3.97 0.49,5.52 3.36,9.11 8.51,10.68 2.26,0.69 5.11,1.07 7.96,1.07 3.78,0 7.56,-0.67 9.97,-2.17 3.42,-2.13 5.05,-6.14 4.82,-9.29 h 2.39 V 89.4 h -2.98 c -1.25,-2.53 -4.02,-2.8 -5.91,-2.98 l -0.19,-0.02 c -1.01,-0.1 -3.45,-0.12 -5.98,-0.12 z m -2.12,15.87 c -2.77,0 -5.53,-0.36 -7.67,-1.01 -4.79,-1.46 -7.34,-4.68 -7.8,-9.82 V 91.3 c -0.01,-0.1 -0.13,-1.8 3.15,-2.91 2.83,-0.96 5.84,-1.08 8.15,-1.08 0.5,0 1.22,0 2.08,-0.01 1.19,-0.01 2.69,-0.01 4.17,-0.01 2.5,0 4.96,0.02 5.94,0.12 l 0.19,0.02 c 2,0.19 4.48,0.42 5.34,2.97 0.97,2.88 -0.44,7.5 -4.09,9.77 -2.25,1.37 -5.86,1.98 -9.46,1.98 z"
                 fill="#070201"
                 stroke-width="none"
                 opacity="1" />
            </g>
          </g>
        </g>
      </g>
    </g>
    <rect
       id="svga-credit-rect"
       width="200"
       height="15"
       x="0"
       y="185"
       fill="#ecf0f1"
       opacity="0.5"
       style="display:none" />
    <text
       id="svga-credit-text"
       font-family="'Avenir Next', Roboto, Helvetica, Arial, sans-serif"
       font-size="10px"
       text-anchor="start"
       font-weight="400"
       size="10px"
       anchor="start"
       weight="400"
       fill="#333333"
       x="33.402061"
       y="182.71133"
       style="display:none"><tspan
         id="SvgjsTspan5525"
         dy="13"
         x="33.402061">Created on AvatarMaker.com</tspan></text>
  </g>
  <defs
     id="SvgjsDefs5472">
    <linearGradient
       id="SvgjsLinearGradient7677"
       x1="81.1774"
       y1="84.6913"
       x2="81.1774"
       y2="107.2461"
       gradientUnits="userSpaceOnUse"
       class="svga-on-canvas-glasses-gradient-single-0-null">
      <stop
         id="SvgjsStop7678"
         stop-opacity="1"
         stop-color="#9bc2cf"
         offset="0" />
      <stop
         id="SvgjsStop7679"
         stop-opacity="0"
         stop-color="#6086c4"
         offset="1" />
    </linearGradient>
    <linearGradient
       id="SvgjsLinearGradient7681"
       x1="-18.8226"
       y1="84.6913"
       x2="-18.8226"
       y2="107.2461"
       gradientTransform="matrix(-1 0 0 1 100 0)"
       gradientUnits="userSpaceOnUse"
       class="svga-on-canvas-glasses-gradient-single-1-null">
      <stop
         id="SvgjsStop7682"
         stop-opacity="1"
         stop-color="#9bc2cf"
         offset="0" />
      <stop
         id="SvgjsStop7683"
         stop-opacity="0"
         stop-color="#6086c4"
         offset="1" />
    </linearGradient>
  </defs>
</svg>
